<?xml version="1.0" encoding="UTF-8"?> <svg xmlns="http://www.w3.org/2000/svg" viewBox="0 0 736.77 160.65"><g id="a"></g><g id="b"><g id="c"><g><path d="M91.67,55.23c-14.12-4.32-27.75-6.22-39.09-5.88l2.36,9.86c9.06-1.32,21.39-.14,34.35,3.82,5.16,1.58,10,3.48,14.38,5.56l2.02-8.28c-4.42-1.88-9.12-3.58-14.02-5.08Z" style="fill:#1d1d1b;"></path><path d="M118.53,6.63c25.83,13.54,43.43,40.59,43.43,71.76,0,44.69-36.21,80.92-80.86,80.98" style="fill:#218a37;"></path><polyline points="81.1 159.36 93.74 107.81 95.78 99.43 103.92 66.24 105.97 57.86 118.53 6.63" style="fill:#218a37;"></polyline><polyline points="43.39 6.65 52.89 46.1 55.21 55.78 63.56 90.47 65.96 100.43 80.14 159.36" style="fill:#0079b1;"></polyline><path d="M80.14,159.36C35.79,158.9,0,122.84,0,78.38,0,47.22,17.58,20.17,43.39,6.65" style="fill:#0079b1;"></path><path d="M136.01,77.82c-2.64-2.94-5.96-5.84-9.86-8.64-3.7,2.14-5.64,8.64-5.64,8.64l.1,.16c.36,.36,.68,.72,.98,1.08v.02c1.16,1.36,2.1,2.72,2.8,4.06,.28,.52,.52,1.04,.72,1.56,.82,2.16,.98,4.24,.4,6.16-2.18,7.14-14.2,10.2-29.73,8.56-5.9-.6-12.3-1.88-18.88-3.9-4.76-1.46-9.24-3.18-13.34-5.06-8.76-4.06-15.78-8.94-20.08-13.8-.26-.3-.5-.58-.72-.86-2.56-3.14-3.96-6.24-3.9-9.1,0-.16,0-.3,.02-.46,.04-.6,.14-1.2,.32-1.76,.1-.3,.2-.6,.32-.88,0-.04,.02-.06,.02-.06-7.38-7.16-16.96-3.86-17.56-3.66l-.06,.24c-.04,.18-.08,.38-.1,.58-.04,.22-.08,.44-.1,.66l-.06,.72c-.04,.58-.02,1.16,.02,1.72,0,.18,.02,.36,.06,.54,0,.26,.04,.52,.1,.78,.06,.4,.14,.8,.26,1.22,1.38,5.36,5.74,11.1,12.34,16.62,.02,.02,.04,.02,.04,.02,7.78,6.5,18.7,12.64,31.49,17.44,2.78,1.04,5.62,2,8.56,2.9,6.58,2.02,13.04,3.5,19.22,4.48,25.07,3.98,45.37-.36,48.85-11.72,1.68-5.54-.86-11.94-6.58-18.26Z" style="fill:#1d1d1b;"></path><path d="M43.47,76.66l-9,6.32s-.02,0-.04-.02c-.66-.5-10.18-7.72-12.34-16.62-.12-.42-.2-.82-.26-1.22-.06-.26-.1-.52-.1-.78-.04-.18-.06-.36-.06-.54-.04-.56-.06-1.14-.02-1.72l.06-.72c.02-.22,.06-.44,.1-.66,.02-.2,.06-.4,.1-.58,0-.08,.02-.14,.04-.22l.02-.02c.6-.2,10.18-3.5,17.56,3.66,0,0-.02,.02-.02,.06-.14,.2-.58,1.12-.64,2.64-.02,.16-.02,.3-.02,.46,.02,2.1,.82,5.2,3.9,9.1,.22,.28,.46,.56,.72,.86Z" style="fill:#1d1d1b;"></path><g><path d="M199.31,26.63c0-12.51,8.32-17.91,17.64-17.91,11.37,0,17.19,7.49,17.19,18.13,0,12.51-8.26,17.91-17.58,17.91-11.37,0-17.25-7.49-17.25-18.13Zm28.29,.27c0-7.81-3.44-13.1-10.65-13.1s-11.09,5.24-11.09,12.78,3.44,13.1,10.7,13.1,11.04-5.24,11.04-12.78Z" style="fill:#0079b1;"></path><path d="M262.04,31.6c0,9.09-6.16,13.15-12.92,13.15-1.66,0-3.27-.27-4.77-.64v9.89h-5.99V20.43l5.99-.59v2.09c2.5-1.5,5.16-2.3,7.6-2.3,6.99,0,10.09,5.08,10.09,11.98Zm-6.27,.05c0-5.35-2-7.38-5.71-7.38-1.78,0-3.61,.48-5.71,1.66v13.9c1.28,.32,2.55,.53,3.99,.53,4.33,0,7.43-2.73,7.43-8.71Z" style="fill:#0079b1;"></path><path d="M286.5,33.37h-16.47c.28,5.03,3.33,6.84,6.71,6.84,2.88,0,4.83-.8,7.27-2.14l2.11,3.74c-2.38,1.6-5.71,2.94-9.82,2.94-6.71,0-12.26-3.26-12.26-12.24,0-7.43,4.16-12.89,12.04-12.89,7.04,0,10.65,4.44,10.65,10.16,0,.86-.06,2.51-.22,3.58Zm-16.2-4.01h10.65v-.16c0-3.85-2-5.4-4.83-5.4-3.38,0-5.21,2.14-5.82,5.56Z" style="fill:#0079b1;"></path><path d="M312.62,27v17.06h-5.99v-15.18c0-3.48-1-4.6-3.94-4.6-1.94,0-4.16,.64-6.27,1.66v18.12h-5.99V20.43l5.99-.59v2.3c2.38-1.34,5.38-2.51,8.65-2.51,4.6,0,7.54,2.14,7.54,7.38Z" style="fill:#0079b1;"></path><path d="M350.88,6.69V44.06h-5.27l-.39-1.76c-2.5,1.55-5.1,2.46-7.71,2.46-6.71,0-10.26-4.44-10.26-11.98,0-9.04,6.05-13.15,12.76-13.15,1.66,0,3.33,.27,4.88,.7V7.27l5.99-.59Zm-11.76,33.47c1.89,0,3.72-.53,5.77-1.71v-13.85c-1.28-.43-2.61-.64-4.16-.64-4.1,0-7.21,2.78-7.21,8.77,0,5.19,2.05,7.43,5.6,7.43Z" style="fill:#0079b1;"></path><path d="M354.6,32.14c0-9.25,6.1-12.51,13.03-12.51,8.32,0,12.2,5.45,12.2,12.56,0,9.09-5.99,12.56-13.09,12.56-8.26,0-12.15-5.72-12.15-12.62Zm18.97,0c0-4.87-1.89-8.02-6.21-8.02-4.88,0-6.54,3.15-6.54,8.02s1.89,8.13,6.38,8.13c4.88,0,6.38-3.48,6.38-8.13Z" style="fill:#0079b1;"></path><path d="M381.77,32.14c0-9.25,6.1-12.51,13.03-12.51,8.32,0,12.2,5.45,12.2,12.56,0,9.09-5.99,12.56-13.09,12.56-8.26,0-12.15-5.72-12.15-12.62Zm18.97,0c0-4.87-1.89-8.02-6.21-8.02-4.88,0-6.54,3.15-6.54,8.02s1.89,8.13,6.38,8.13c4.88,0,6.38-3.48,6.38-8.13Z" style="fill:#0079b1;"></path><path d="M426.92,20.11l-1,5.88c-.94-.37-2-.64-3.38-.64-1.89,0-3.83,.53-5.82,3.31v15.4h-5.99V20.37l5.99-.54v3.37c1.83-2.41,4.27-3.58,6.99-3.58,1.17,0,2.11,.16,3.22,.48Z" style="fill:#0079b1;"></path><path d="M426.75,41.55l2.55-3.9c2.94,2.03,5.88,2.73,8.38,2.73,2.94,0,4.44-.96,4.44-2.67,0-1.39-.94-2.41-5.1-3.48l-1.66-.43c-5.16-1.34-7.49-3.37-7.49-7.06,0-4.22,3.99-7.11,9.6-7.11,3.22,0,6.49,.7,9.82,2.57l-2.33,3.85c-3.11-1.55-4.94-2.03-7.38-2.03s-3.61,.96-3.61,2.35c0,1.28,.83,1.87,3.88,2.62l1.78,.43c6.04,1.55,8.54,3.9,8.54,7.75,0,4.33-3.44,7.59-10.32,7.59-4.6,0-8.04-1.12-11.09-3.21Z" style="fill:#0079b1;"></path><path d="M449.88,40.9c0-2.03,1.77-3.74,3.94-3.74s3.94,1.71,3.94,3.74-1.78,3.74-3.94,3.74-3.94-1.66-3.94-3.74Z" style="fill:#0079b1;"></path><path d="M470.95,26.63c0-12.51,8.32-17.91,17.64-17.91,11.37,0,17.19,7.49,17.19,18.13,0,12.51-8.26,17.91-17.58,17.91-11.37,0-17.25-7.49-17.25-18.13Zm28.29,.27c0-7.81-3.44-13.1-10.65-13.1s-11.09,5.24-11.09,12.78,3.44,13.1,10.71,13.1,11.04-5.24,11.04-12.78Z" style="fill:#218a37;"></path><path d="M533.68,31.6c0,9.09-6.16,13.15-12.92,13.15-1.66,0-3.27-.27-4.77-.64v9.89h-5.99V20.43l5.99-.59v2.09c2.5-1.5,5.16-2.3,7.6-2.3,6.99,0,10.09,5.08,10.09,11.98Zm-6.27,.05c0-5.35-2-7.38-5.71-7.38-1.78,0-3.61,.48-5.71,1.66v13.9c1.28,.32,2.55,.53,3.99,.53,4.33,0,7.43-2.73,7.43-8.71Z" style="fill:#218a37;"></path><path d="M558.13,33.37h-16.47c.28,5.03,3.33,6.84,6.71,6.84,2.88,0,4.83-.8,7.27-2.14l2.11,3.74c-2.38,1.6-5.71,2.94-9.82,2.94-6.71,0-12.26-3.26-12.26-12.24,0-7.43,4.16-12.89,12.04-12.89,7.04,0,10.65,4.44,10.65,10.16,0,.86-.06,2.51-.22,3.58Zm-16.2-4.01h10.65v-.16c0-3.85-2-5.4-4.83-5.4-3.38,0-5.21,2.14-5.82,5.56Z" style="fill:#218a37;"></path><path d="M584.26,27v17.06h-5.99v-15.18c0-3.48-1-4.6-3.94-4.6-1.94,0-4.16,.64-6.27,1.66v18.12h-5.99V20.43l5.99-.59v2.3c2.38-1.34,5.38-2.51,8.65-2.51,4.6,0,7.54,2.14,7.54,7.38Z" style="fill:#218a37;"></path><path d="M637,26.9v17.16h-5.99v-15.18c0-3.48-.94-4.6-3.38-4.6-1.83,0-3.88,.59-5.88,1.6,.06,.32,.06,.7,.06,1.02v17.16h-5.99v-15.18c0-3.48-.94-4.6-3.38-4.6-1.78,0-3.83,.59-5.77,1.6v18.18h-5.99V20.43l5.99-.59v2.09c2.33-1.28,5.1-2.3,8.1-2.3,2.61,0,4.71,.8,5.88,2.67,2.55-1.44,5.88-2.67,9.32-2.67,4.22,0,7.04,2.14,7.04,7.27Z" style="fill:#218a37;"></path><path d="M641.16,12.3c0-2.09,1.83-3.85,3.99-3.85,2.27,0,4.1,1.76,4.1,3.85s-1.83,3.8-4.1,3.8-3.99-1.71-3.99-3.8Zm1.11,8.13l5.99-.59v24.22h-5.99V20.43Z" style="fill:#218a37;"></path><path d="M675.93,27v17.06h-5.99v-15.18c0-3.48-1-4.6-3.94-4.6-1.94,0-4.16,.64-6.27,1.66v18.12h-5.99V20.43l5.99-.59v2.3c2.38-1.34,5.38-2.51,8.65-2.51,4.6,0,7.54,2.14,7.54,7.38Z" style="fill:#218a37;"></path><path d="M703.05,6.69V44.06h-5.27l-.39-1.76c-2.5,1.55-5.1,2.46-7.71,2.46-6.71,0-10.26-4.44-10.26-11.98,0-9.04,6.05-13.15,12.76-13.15,1.66,0,3.33,.27,4.88,.7V7.27l5.99-.59Zm-11.76,33.47c1.89,0,3.72-.53,5.77-1.71v-13.85c-1.28-.43-2.61-.64-4.16-.64-4.1,0-7.21,2.78-7.21,8.77,0,5.19,2.05,7.43,5.6,7.43Z" style="fill:#218a37;"></path><path d="M705.77,41.55l2.55-3.9c2.94,2.03,5.88,2.73,8.38,2.73,2.94,0,4.44-.96,4.44-2.67,0-1.39-.94-2.41-5.1-3.48l-1.66-.43c-5.16-1.34-7.49-3.37-7.49-7.06,0-4.22,3.99-7.11,9.6-7.11,3.22,0,6.49,.7,9.82,2.57l-2.33,3.85c-3.11-1.55-4.94-2.03-7.38-2.03s-3.61,.96-3.61,2.35c0,1.28,.83,1.87,3.88,2.62l1.78,.43c6.04,1.55,8.54,3.9,8.54,7.75,0,4.33-3.44,7.59-10.32,7.59-4.6,0-8.04-1.12-11.09-3.21Z" style="fill:#218a37;"></path><path d="M728.89,40.9c0-2.03,1.77-3.74,3.94-3.74s3.94,1.71,3.94,3.74-1.78,3.74-3.94,3.74-3.94-1.66-3.94-3.74Z" style="fill:#218a37;"></path></g><g><path d="M232.79,83.91l1.38-2.08c1.61,1.14,3.4,1.56,4.78,1.56,2.23,0,3.53-.75,3.53-2.34,0-1.38-.81-1.95-3.56-2.94l-.49-.18c-2.75-1.04-4.91-2.05-4.91-5.02,0-3.17,3.01-4.55,5.92-4.55,1.95,0,3.95,.52,5.79,1.77l-1.35,2.08c-1.51-.94-2.75-1.4-4.47-1.4s-2.88,.65-2.88,2c0,1.04,.68,1.66,3.27,2.6l.52,.18c2.52,.91,5.22,1.9,5.22,5.3s-2.68,4.99-6.44,4.99c-2.65,0-4.75-.78-6.31-1.98Z" style="fill:#1d1d1b;"></path><path d="M258.67,77.21v8.34h-2.81v-7.38c0-1.69-.47-2.23-1.87-2.23-.91,0-1.92,.29-2.88,.78v8.83h-2.81v-17.88l2.81-.29v7.41c1.12-.62,2.5-1.12,4-1.12,2.18,0,3.56,1.04,3.56,3.53Z" style="fill:#1d1d1b;"></path><path d="M271.63,80.35h-7.72c.13,2.44,1.56,3.33,3.14,3.33,1.35,0,2.26-.39,3.4-1.04l.99,1.82c-1.12,.78-2.68,1.43-4.6,1.43-3.14,0-5.74-1.58-5.74-5.95,0-3.61,1.95-6.26,5.64-6.26,3.3,0,4.99,2.16,4.99,4.94,0,.42-.03,1.22-.1,1.74Zm-7.59-1.95h4.99v-.08c0-1.87-.94-2.62-2.26-2.62-1.59,0-2.44,1.04-2.73,2.7Z" style="fill:#1d1d1b;"></path><path d="M273.79,70.11c0-1.01,.86-1.87,1.87-1.87,1.07,0,1.92,.86,1.92,1.87s-.86,1.85-1.92,1.85-1.87-.83-1.87-1.85Zm.52,3.95l2.81-.29v11.77h-2.81v-11.49Z" style="fill:#1d1d1b;"></path><path d="M291.14,85.37v.18h-3.35l-4.47-5.9v5.9h-2.81v-17.88l2.81-.29v11.88l4.55-5.22h3.04v.16l-4.52,5.17,4.75,6Z" style="fill:#1d1d1b;"></path><path d="M303.48,77.21v8.34h-2.81v-7.38c0-1.69-.47-2.23-1.87-2.23-.91,0-1.92,.29-2.88,.78v8.83h-2.81v-17.88l2.81-.29v7.41c1.12-.62,2.5-1.12,4-1.12,2.18,0,3.56,1.04,3.56,3.53Z" style="fill:#1d1d1b;"></path><path d="M330.68,68.71v16.84h-2.91v-11.82c-.23,.62-.55,1.38-1.07,2.39l-3.56,6.99h-2.55l-3.51-6.99c-.55-1.04-.91-1.79-1.14-2.44v11.88h-2.86v-16.84h3.2l3.82,7.41c.73,1.43,1.43,2.91,1.79,4.03,.36-1.12,1.07-2.62,1.79-4.03l3.85-7.41h3.14Z" style="fill:#1d1d1b;"></path><path d="M333.57,79.75c0-4.5,2.86-6.08,6.11-6.08,3.9,0,5.72,2.65,5.72,6.11,0,4.42-2.81,6.11-6.13,6.11-3.87,0-5.69-2.78-5.69-6.13Zm8.89,0c0-2.36-.88-3.9-2.91-3.9-2.29,0-3.07,1.53-3.07,3.9s.88,3.95,2.99,3.95c2.29,0,2.99-1.69,2.99-3.95Z" style="fill:#1d1d1b;"></path><path d="M358.33,77.21v8.34h-2.81v-7.38c0-1.69-.47-2.23-1.87-2.23-.91,0-1.92,.29-2.88,.78v8.83h-2.81v-17.88l2.81-.29v7.41c1.12-.62,2.5-1.12,4-1.12,2.18,0,3.56,1.04,3.56,3.53Z" style="fill:#1d1d1b;"></path><path d="M370.77,77.49v8.06h-2.44l-.21-.96c-1.35,.99-2.7,1.3-4.03,1.3-2.11,0-3.51-1.25-3.51-3.14,0-2.94,3.4-4.18,7.38-4.29v-.44c0-1.46-.44-2.1-1.87-2.1-1.17,0-2.44,.42-3.85,1.33l-1.14-1.79c1.61-1.12,3.33-1.77,5.4-1.77,2.75,0,4.26,1.09,4.26,3.82Zm-5.77,6.21c.94,0,1.9-.26,2.96-.88v-2.49c-2.7,.13-4.44,.83-4.44,2.1,0,.83,.52,1.27,1.48,1.27Z" style="fill:#1d1d1b;"></path><path d="M391.09,77.21v8.34h-2.81v-7.38c0-1.69-.44-2.23-1.59-2.23-.86,0-1.82,.29-2.75,.78,.03,.16,.03,.34,.03,.49v8.34h-2.81v-7.38c0-1.69-.44-2.23-1.59-2.23-.83,0-1.79,.29-2.7,.78v8.83h-2.81v-11.49l2.81-.29v1.01c1.09-.62,2.39-1.12,3.79-1.12,1.22,0,2.21,.39,2.75,1.3,1.2-.7,2.75-1.3,4.37-1.3,1.97,0,3.3,1.04,3.3,3.53Z" style="fill:#1d1d1b;"></path><path d="M411.41,77.21v8.34h-2.81v-7.38c0-1.69-.44-2.23-1.59-2.23-.86,0-1.82,.29-2.75,.78,.03,.16,.03,.34,.03,.49v8.34h-2.81v-7.38c0-1.69-.44-2.23-1.59-2.23-.83,0-1.79,.29-2.7,.78v8.83h-2.81v-11.49l2.81-.29v1.01c1.09-.62,2.39-1.12,3.79-1.12,1.22,0,2.21,.39,2.75,1.3,1.2-.7,2.75-1.3,4.37-1.3,1.97,0,3.3,1.04,3.3,3.53Z" style="fill:#1d1d1b;"></path><path d="M424.39,80.35h-7.72c.13,2.44,1.56,3.33,3.14,3.33,1.35,0,2.26-.39,3.4-1.04l.99,1.82c-1.12,.78-2.68,1.43-4.6,1.43-3.14,0-5.74-1.58-5.74-5.95,0-3.61,1.95-6.26,5.64-6.26,3.3,0,4.99,2.16,4.99,4.94,0,.42-.03,1.22-.1,1.74Zm-7.59-1.95h4.99v-.08c0-1.87-.94-2.62-2.26-2.62-1.59,0-2.44,1.04-2.73,2.7Z" style="fill:#1d1d1b;"></path><path d="M437.31,67.38v18.16h-2.47l-.18-.86c-1.17,.75-2.39,1.2-3.61,1.2-3.14,0-4.81-2.16-4.81-5.82,0-4.39,2.83-6.39,5.98-6.39,.78,0,1.56,.13,2.29,.34v-6.34l2.81-.29Zm-5.51,16.27c.88,0,1.74-.26,2.7-.83v-6.73c-.6-.21-1.22-.31-1.95-.31-1.92,0-3.38,1.35-3.38,4.26,0,2.52,.96,3.61,2.62,3.61Z" style="fill:#1d1d1b;"></path><path d="M457.86,79.52c0,4.86-3.61,6.37-6.65,6.37-.99,0-2.55-.16-4.44-.73v-17.49l2.81-.29v7.38c1.22-.7,2.5-1.09,3.72-1.09,3.12,0,4.57,2.31,4.57,5.85Zm-2.94-.05c0-2.34-.7-3.53-2.52-3.53-.73,0-1.66,.21-2.83,.75v6.86c.52,.1,1.01,.16,1.51,.16,2.13,0,3.85-1.09,3.85-4.24Z" style="fill:#1d1d1b;"></path><path d="M459.93,70.11c0-1.01,.86-1.87,1.87-1.87,1.07,0,1.92,.86,1.92,1.87s-.86,1.85-1.92,1.85-1.87-.83-1.87-1.85Zm.52,3.95l2.81-.29v11.77h-2.81v-11.49Z" style="fill:#1d1d1b;"></path><path d="M477.06,77.26v8.29h-2.81v-7.38c0-1.69-.47-2.23-1.84-2.23-.91,0-1.95,.31-2.94,.81v8.81h-2.81v-11.49l2.81-.29v1.12c1.12-.65,2.52-1.22,4.05-1.22,2.16,0,3.53,1.04,3.53,3.59Z" style="fill:#1d1d1b;"></path><path d="M499.58,85.37v.18h-3.35l-4.55-6.37h-2.03v6.37h-2.96v-16.84h5.56c4.26,0,6.34,2.16,6.34,5.09,0,2.31-1.25,4.26-3.82,5.02l4.81,6.55Zm-9.93-8.52h2.24c2.34,0,3.64-.99,3.64-2.94,0-1.82-1.17-2.75-3.3-2.75h-2.57v5.69Z" style="fill:#1d1d1b;"></path><path d="M510.65,77.49v8.06h-2.44l-.21-.96c-1.35,.99-2.7,1.3-4.03,1.3-2.11,0-3.51-1.25-3.51-3.14,0-2.94,3.4-4.18,7.38-4.29v-.44c0-1.46-.44-2.1-1.87-2.1-1.17,0-2.44,.42-3.85,1.33l-1.14-1.79c1.61-1.12,3.33-1.77,5.4-1.77,2.75,0,4.26,1.09,4.26,3.82Zm-5.77,6.21c.94,0,1.9-.26,2.96-.88v-2.49c-2.7,.13-4.44,.83-4.44,2.1,0,.83,.52,1.27,1.48,1.27Z" style="fill:#1d1d1b;"></path><path d="M512.65,84.33l1.2-1.9c1.38,.99,2.75,1.33,3.92,1.33,1.38,0,2.08-.47,2.08-1.3,0-.68-.44-1.17-2.39-1.69l-.78-.21c-2.42-.65-3.51-1.64-3.51-3.43,0-2.05,1.87-3.46,4.5-3.46,1.51,0,3.04,.34,4.6,1.25l-1.09,1.87c-1.46-.75-2.31-.99-3.46-.99s-1.69,.47-1.69,1.14c0,.62,.39,.91,1.82,1.27l.83,.21c2.83,.75,4,1.9,4,3.77,0,2.1-1.61,3.69-4.83,3.69-2.16,0-3.77-.55-5.2-1.56Z" style="fill:#1d1d1b;"></path><path d="M535.43,77.21v8.34h-2.81v-7.38c0-1.69-.47-2.23-1.87-2.23-.91,0-1.92,.29-2.88,.78v8.83h-2.81v-17.88l2.81-.29v7.41c1.12-.62,2.5-1.12,4-1.12,2.18,0,3.56,1.04,3.56,3.53Z" style="fill:#1d1d1b;"></path><path d="M538.18,70.11c0-1.01,.86-1.87,1.87-1.87,1.07,0,1.92,.86,1.92,1.87s-.86,1.85-1.92,1.85-1.87-.83-1.87-1.85Zm.52,3.95l2.81-.29v11.77h-2.81v-11.49Z" style="fill:#1d1d1b;"></path><path d="M555.15,67.38v18.16h-2.47l-.18-.86c-1.17,.75-2.39,1.2-3.61,1.2-3.14,0-4.81-2.16-4.81-5.82,0-4.39,2.83-6.39,5.98-6.39,.78,0,1.56,.13,2.29,.34v-6.34l2.81-.29Zm-5.51,16.27c.88,0,1.74-.26,2.7-.83v-6.73c-.6-.21-1.22-.31-1.95-.31-1.92,0-3.38,1.35-3.38,4.26,0,2.52,.96,3.61,2.62,3.61Z" style="fill:#1d1d1b;"></path><path d="M579.34,85.37v.18h-3.12l-1.59-4.47h-6.76l-1.56,4.47h-3.04v-.18l6.18-16.66h3.66l6.21,16.66Zm-5.56-6.68l-2.55-7.22-2.52,7.22h5.07Z" style="fill:#1d1d1b;"></path><path d="M581.44,67.67l2.81-.29v18.16h-2.81v-17.88Z" style="fill:#1d1d1b;"></path><path d="M611.58,68.71v16.84h-2.91v-11.82c-.23,.62-.55,1.38-1.07,2.39l-3.56,6.99h-2.55l-3.51-6.99c-.55-1.04-.91-1.79-1.14-2.44v11.88h-2.86v-16.84h3.2l3.82,7.41c.73,1.43,1.43,2.91,1.79,4.03,.36-1.12,1.07-2.62,1.79-4.03l3.85-7.41h3.14Z" style="fill:#1d1d1b;"></path><path d="M624.46,77.49v8.06h-2.44l-.21-.96c-1.35,.99-2.7,1.3-4.03,1.3-2.11,0-3.51-1.25-3.51-3.14,0-2.94,3.4-4.18,7.38-4.29v-.44c0-1.46-.44-2.1-1.87-2.1-1.17,0-2.44,.42-3.85,1.33l-1.14-1.79c1.61-1.12,3.33-1.77,5.4-1.77,2.75,0,4.26,1.09,4.26,3.82Zm-5.77,6.21c.94,0,1.9-.26,2.96-.88v-2.49c-2.7,.13-4.44,.83-4.44,2.1,0,.83,.52,1.27,1.48,1.27Z" style="fill:#1d1d1b;"></path><path d="M638.39,85.37v.18h-3.35l-4.47-5.9v5.9h-2.81v-17.88l2.81-.29v11.88l4.55-5.22h3.04v.16l-4.52,5.17,4.75,6Z" style="fill:#1d1d1b;"></path><path d="M647.85,85.11c-.7,.36-1.72,.78-3.12,.78-1.95,0-3.56-1.09-3.56-3.69v-5.95h-2.21v-2.21h2.21v-2.6l2.81-.42v3.01h3.59l-.29,2.21h-3.3v5.51c0,1.3,.49,1.85,1.38,1.85,.57,0,1.07-.16,1.71-.42l.78,1.92Z" style="fill:#1d1d1b;"></path><path d="M648.78,79.75c0-4.5,2.86-6.08,6.11-6.08,3.9,0,5.72,2.65,5.72,6.11,0,4.42-2.81,6.11-6.13,6.11-3.87,0-5.69-2.78-5.69-6.13Zm8.89,0c0-2.36-.88-3.9-2.91-3.9-2.29,0-3.07,1.53-3.07,3.9s.88,3.95,2.99,3.95c2.29,0,2.99-1.69,2.99-3.95Z" style="fill:#1d1d1b;"></path><path d="M673.36,73.78v11.77h-2.44l-.21-.88c-1.12,.68-2.47,1.22-4.08,1.22-2.13,0-3.59-1.22-3.59-3.61v-8.21l2.81-.29v7.67c0,1.53,.44,2.16,1.9,2.16,.88,0,1.87-.39,2.81-.88v-8.65l2.81-.29Z" style="fill:#1d1d1b;"></path><path d="M693.81,77.21v8.34h-2.81v-7.38c0-1.69-.44-2.23-1.59-2.23-.86,0-1.82,.29-2.75,.78,.03,.16,.03,.34,.03,.49v8.34h-2.81v-7.38c0-1.69-.44-2.23-1.59-2.23-.83,0-1.79,.29-2.7,.78v8.83h-2.81v-11.49l2.81-.29v1.01c1.09-.62,2.39-1.12,3.79-1.12,1.22,0,2.21,.39,2.75,1.3,1.2-.7,2.75-1.3,4.37-1.3,1.97,0,3.3,1.04,3.3,3.53Z" style="fill:#1d1d1b;"></path><path d="M284.22,108.38c0-6.55,3.82-8.84,7.85-8.84,2.18,0,3.9,.55,5.53,1.53l-1.2,2.21c-.99-.6-2.36-1.22-4.18-1.22-3.48,0-4.88,2.44-4.88,6.16,0,3.95,1.74,6.29,5.04,6.29,1.82,0,3.04-.57,4.18-1.25l1.17,2.13c-1.71,1.01-3.38,1.66-5.59,1.66-5.61,0-7.92-3.59-7.92-8.68Z" style="fill:#1d1d1b;"></path><path d="M309.47,111.53h-7.72c.13,2.44,1.56,3.33,3.14,3.33,1.35,0,2.26-.39,3.4-1.04l.99,1.82c-1.12,.78-2.68,1.43-4.6,1.43-3.14,0-5.74-1.59-5.74-5.95,0-3.61,1.95-6.26,5.64-6.26,3.3,0,4.99,2.16,4.99,4.94,0,.42-.03,1.22-.1,1.74Zm-7.59-1.95h4.99v-.08c0-1.87-.94-2.62-2.26-2.62-1.59,0-2.44,1.04-2.73,2.7Z" style="fill:#1d1d1b;"></path><path d="M322.54,108.43v8.29h-2.81v-7.38c0-1.69-.47-2.23-1.84-2.23-.91,0-1.95,.31-2.94,.81v8.81h-2.81v-11.49l2.81-.29v1.12c1.12-.65,2.52-1.22,4.05-1.22,2.16,0,3.53,1.04,3.53,3.59Z" style="fill:#1d1d1b;"></path><path d="M332.96,116.28c-.7,.36-1.71,.78-3.12,.78-1.95,0-3.56-1.09-3.56-3.69v-5.95h-2.21v-2.21h2.21v-2.6l2.81-.42v3.01h3.59l-.29,2.21h-3.3v5.51c0,1.3,.49,1.85,1.38,1.85,.57,0,1.07-.16,1.71-.42l.78,1.92Z" style="fill:#1d1d1b;"></path><path d="M342.57,105.08l-.47,2.86c-.44-.18-.94-.31-1.58-.31-.88,0-1.79,.26-2.73,1.61v7.48h-2.81v-11.51l2.81-.26v1.64c.86-1.17,2-1.74,3.27-1.74,.55,0,.99,.08,1.51,.23Z" style="fill:#1d1d1b;"></path><path d="M353.79,111.53h-7.72c.13,2.44,1.56,3.33,3.14,3.33,1.35,0,2.26-.39,3.4-1.04l.99,1.82c-1.12,.78-2.68,1.43-4.6,1.43-3.14,0-5.74-1.59-5.74-5.95,0-3.61,1.95-6.26,5.64-6.26,3.3,0,4.99,2.16,4.99,4.94,0,.42-.03,1.22-.1,1.74Zm-7.59-1.95h4.99v-.08c0-1.87-.94-2.62-2.26-2.62-1.59,0-2.44,1.04-2.73,2.7Z" style="fill:#1d1d1b;"></path><path d="M365.98,103.21v2h3.3l-.29,2.21h-3.01v9.3h-2.81v-9.3h-1.92v-2.21h1.92v-1.95c0-2.68,1.56-4.6,4.37-4.6,1.12,0,1.97,.18,2.75,.49l-.7,2.21c-.62-.26-1.2-.36-1.82-.36-1.17,0-1.79,.83-1.79,2.21Z" style="fill:#1d1d1b;"></path><path d="M369.87,110.93c0-4.5,2.86-6.08,6.11-6.08,3.9,0,5.72,2.65,5.72,6.11,0,4.42-2.81,6.11-6.13,6.11-3.87,0-5.69-2.78-5.69-6.13Zm8.89,0c0-2.36-.88-3.9-2.91-3.9-2.29,0-3.07,1.53-3.07,3.9s.88,3.95,2.99,3.95c2.29,0,2.99-1.69,2.99-3.95Z" style="fill:#1d1d1b;"></path><path d="M391.85,105.08l-.47,2.86c-.44-.18-.94-.31-1.58-.31-.88,0-1.79,.26-2.73,1.61v7.48h-2.81v-11.51l2.81-.26v1.64c.86-1.17,2-1.74,3.27-1.74,.55,0,.99,.08,1.51,.23Z" style="fill:#1d1d1b;"></path><path d="M399.33,108.38c0-6.55,3.82-8.84,7.85-8.84,2.18,0,3.9,.55,5.53,1.53l-1.2,2.21c-.99-.6-2.36-1.22-4.18-1.22-3.48,0-4.88,2.44-4.88,6.16,0,3.95,1.74,6.29,5.04,6.29,1.82,0,3.04-.57,4.18-1.25l1.17,2.13c-1.71,1.01-3.38,1.66-5.59,1.66-5.61,0-7.92-3.59-7.92-8.68Z" style="fill:#1d1d1b;"></path><path d="M425.08,104.95v11.77h-2.44l-.21-.88c-1.12,.68-2.47,1.22-4.08,1.22-2.13,0-3.59-1.22-3.59-3.61v-8.21l2.81-.29v7.67c0,1.53,.44,2.16,1.9,2.16,.88,0,1.87-.39,2.81-.88v-8.65l2.81-.29Z" style="fill:#1d1d1b;"></path><path d="M428.51,98.85l2.81-.29v18.16h-2.81v-17.88Z" style="fill:#1d1d1b;"></path><path d="M442.2,116.28c-.7,.36-1.71,.78-3.12,.78-1.95,0-3.56-1.09-3.56-3.69v-5.95h-2.21v-2.21h2.21v-2.6l2.81-.42v3.01h3.59l-.29,2.21h-3.3v5.51c0,1.3,.49,1.85,1.38,1.85,.57,0,1.07-.16,1.71-.42l.78,1.92Z" style="fill:#1d1d1b;"></path><path d="M454.41,104.95v11.77h-2.44l-.21-.88c-1.12,.68-2.47,1.22-4.08,1.22-2.13,0-3.59-1.22-3.59-3.61v-8.21l2.81-.29v7.67c0,1.53,.44,2.16,1.9,2.16,.88,0,1.87-.39,2.81-.88v-8.65l2.81-.29Z" style="fill:#1d1d1b;"></path><path d="M465.43,105.08l-.47,2.86c-.44-.18-.94-.31-1.58-.31-.88,0-1.79,.26-2.73,1.61v7.48h-2.81v-11.51l2.81-.26v1.64c.86-1.17,2-1.74,3.27-1.74,.55,0,.99,.08,1.51,.23Z" style="fill:#1d1d1b;"></path><path d="M476.26,108.67v8.06h-2.44l-.21-.96c-1.35,.99-2.7,1.3-4.03,1.3-2.11,0-3.51-1.25-3.51-3.14,0-2.94,3.4-4.18,7.38-4.29v-.44c0-1.46-.44-2.1-1.87-2.1-1.17,0-2.44,.42-3.85,1.33l-1.14-1.79c1.61-1.12,3.33-1.77,5.4-1.77,2.75,0,4.26,1.09,4.26,3.82Zm-5.77,6.21c.94,0,1.9-.26,2.96-.88v-2.49c-2.7,.13-4.44,.83-4.44,2.1,0,.83,.52,1.27,1.48,1.27Z" style="fill:#1d1d1b;"></path><path d="M479.56,98.85l2.81-.29v18.16h-2.81v-17.88Z" style="fill:#1d1d1b;"></path><path d="M491.72,109.94v-10.06h2.96v9.56c0,3.04,1.12,5.09,4.34,5.09s4.18-2.1,4.18-4.89v-9.77h2.96v9.98c0,5.22-3.27,7.2-7.33,7.2-5.04,0-7.12-3.17-7.12-7.12Z" style="fill:#1d1d1b;"></path><path d="M519.88,108.43v8.29h-2.81v-7.38c0-1.69-.47-2.23-1.84-2.23-.91,0-1.95,.31-2.94,.81v8.81h-2.81v-11.49l2.81-.29v1.12c1.12-.65,2.52-1.22,4.05-1.22,2.16,0,3.53,1.04,3.53,3.59Z" style="fill:#1d1d1b;"></path><path d="M533.42,98.56v18.16h-2.47l-.18-.86c-1.17,.75-2.39,1.2-3.61,1.2-3.14,0-4.81-2.16-4.81-5.82,0-4.39,2.83-6.39,5.98-6.39,.78,0,1.56,.13,2.29,.34v-6.34l2.81-.29Zm-5.51,16.27c.88,0,1.74-.26,2.7-.83v-6.73c-.6-.21-1.22-.31-1.95-.31-1.92,0-3.38,1.35-3.38,4.26,0,2.52,.96,3.61,2.62,3.61Z" style="fill:#1d1d1b;"></path><path d="M546.51,111.53h-7.72c.13,2.44,1.56,3.33,3.14,3.33,1.35,0,2.26-.39,3.4-1.04l.99,1.82c-1.12,.78-2.68,1.43-4.6,1.43-3.14,0-5.74-1.59-5.74-5.95,0-3.61,1.95-6.26,5.64-6.26,3.3,0,4.99,2.16,4.99,4.94,0,.42-.03,1.22-.1,1.74Zm-7.59-1.95h4.99v-.08c0-1.87-.94-2.62-2.26-2.62-1.59,0-2.44,1.04-2.73,2.7Z" style="fill:#1d1d1b;"></path><path d="M556.77,105.08l-.47,2.86c-.44-.18-.94-.31-1.58-.31-.88,0-1.79,.26-2.73,1.61v7.48h-2.81v-11.51l2.81-.26v1.64c.86-1.17,2-1.74,3.27-1.74,.55,0,.99,.08,1.51,.23Z" style="fill:#1d1d1b;"></path><path d="M557.53,115.5l1.2-1.9c1.38,.99,2.75,1.33,3.92,1.33,1.38,0,2.08-.47,2.08-1.3,0-.68-.44-1.17-2.39-1.69l-.78-.21c-2.42-.65-3.51-1.64-3.51-3.43,0-2.05,1.87-3.46,4.5-3.46,1.51,0,3.04,.34,4.6,1.25l-1.09,1.87c-1.46-.75-2.31-.99-3.46-.99s-1.69,.47-1.69,1.14c0,.62,.39,.91,1.82,1.27l.83,.21c2.83,.75,4,1.9,4,3.77,0,2.1-1.61,3.69-4.83,3.69-2.16,0-3.77-.55-5.2-1.56Z" style="fill:#1d1d1b;"></path><path d="M577.17,116.28c-.7,.36-1.71,.78-3.12,.78-1.95,0-3.56-1.09-3.56-3.69v-5.95h-2.21v-2.21h2.21v-2.6l2.81-.42v3.01h3.59l-.29,2.21h-3.3v5.51c0,1.3,.49,1.85,1.38,1.85,.57,0,1.07-.16,1.71-.42l.78,1.92Z" style="fill:#1d1d1b;"></path><path d="M588.37,108.67v8.06h-2.44l-.21-.96c-1.35,.99-2.7,1.3-4.03,1.3-2.11,0-3.51-1.25-3.51-3.14,0-2.94,3.4-4.18,7.38-4.29v-.44c0-1.46-.44-2.1-1.87-2.1-1.17,0-2.44,.42-3.85,1.33l-1.14-1.79c1.61-1.12,3.33-1.77,5.4-1.77,2.75,0,4.26,1.09,4.26,3.82Zm-5.77,6.21c.94,0,1.9-.26,2.96-.88v-2.49c-2.7,.13-4.44,.83-4.44,2.1,0,.83,.52,1.27,1.48,1.27Z" style="fill:#1d1d1b;"></path><path d="M602.06,108.43v8.29h-2.81v-7.38c0-1.69-.47-2.23-1.84-2.23-.91,0-1.95,.31-2.94,.81v8.81h-2.81v-11.49l2.81-.29v1.12c1.12-.65,2.52-1.22,4.05-1.22,2.16,0,3.53,1.04,3.53,3.59Z" style="fill:#1d1d1b;"></path><path d="M615.59,98.56v18.16h-2.47l-.18-.86c-1.17,.75-2.39,1.2-3.61,1.2-3.14,0-4.81-2.16-4.81-5.82,0-4.39,2.83-6.39,5.98-6.39,.78,0,1.56,.13,2.29,.34v-6.34l2.81-.29Zm-5.51,16.27c.88,0,1.74-.26,2.7-.83v-6.73c-.6-.21-1.22-.31-1.95-.31-1.92,0-3.38,1.35-3.38,4.26,0,2.52,.96,3.61,2.62,3.61Z" style="fill:#1d1d1b;"></path><path d="M618.47,101.29c0-1.01,.86-1.87,1.87-1.87,1.07,0,1.92,.86,1.92,1.87s-.86,1.85-1.92,1.85-1.87-.83-1.87-1.85Zm.52,3.95l2.81-.29v11.77h-2.81v-11.49Z" style="fill:#1d1d1b;"></path><path d="M635.6,108.43v8.29h-2.81v-7.38c0-1.69-.47-2.23-1.84-2.23-.91,0-1.95,.31-2.94,.81v8.81h-2.81v-11.49l2.81-.29v1.12c1.12-.65,2.52-1.22,4.05-1.22,2.16,0,3.53,1.04,3.53,3.59Z" style="fill:#1d1d1b;"></path><path d="M650.17,117.82c0,2.47-2.5,4.08-6.52,4.08-3.22,0-5.77-.96-5.77-3.27,0-1.4,.83-2.21,1.85-2.81-.47-.36-.75-.83-.75-1.4,0-.68,.36-1.27,1.3-1.95-1.35-.73-1.98-1.98-1.98-3.4,0-3.04,2.65-4.21,5.48-4.21,.57,0,1.07,.05,1.51,.13l3.98-1.66,.88,2.23-2.55,.65c.94,.73,1.4,1.74,1.4,2.94,0,2.99-2.65,4.03-5.43,4.03-.57,0-1.09-.05-1.58-.13-.18,.23-.23,.47-.23,.65,0,.47,.42,.68,2,.81l1.79,.16c2.91,.26,4.63,.99,4.63,3.17Zm-3.01,.39c0-.83-.75-1.17-2.78-1.35l-1.69-.13c-.49-.05-.96-.13-1.38-.23-.47,.52-.78,1.14-.78,1.71,0,1.04,.81,1.64,3.17,1.64,1.9,0,3.46-.47,3.46-1.64Zm-6.03-9.17c0,1.33,.81,2.1,2.6,2.1,1.9,0,2.47-.88,2.47-2.05,0-1.38-.88-2.18-2.55-2.18-1.77,0-2.52,.86-2.52,2.13Z" style="fill:#1d1d1b;"></path></g><g><path d="M223.09,146.82c0-.96,.17-1.97,.38-2.69l1.92-.67,.22,.12c-.17,.91-.24,1.54-.24,2.14,0,2.16,1.06,3.6,5.06,3.6,3.07,0,5.66-1.08,6.5-2.06,.19-.67-.26-.98-1.8-1.51-1.82-.62-3.1-1.03-3.1-2.95,0-2.26,1.97-5.54,5.06-5.54,1.01,0,1.92,.29,2.54,.62l-.46,2.21-.1,.07c-.6-.29-1.44-.53-2.16-.53-1.73,0-3.12,1.54-3.12,2.54,0,.62,.94,.94,2.71,1.54,2.35,.84,2.76,1.44,2.76,2.33,0,3.12-4.32,5.66-9.36,5.66-4.73,0-6.84-2.09-6.84-4.87Zm3.34,8.69l1.34-2.02,2.16,1.49-1.32,2.04-2.18-1.51Zm3.46,0l1.34-2.02,2.16,1.49-1.34,2.04-2.16-1.51Z" style="fill:#1d1d1b;"></path><path d="M238.76,150.49l.14-.22c4.27-.77,6.7-2.78,6.7-3.94-.07-.89-.87-2.69-1.73-4.25l1.73-1.9h.21c1.06,1.92,1.68,4.13,1.68,5.57,0,.84-.21,1.75-.67,2.59-.98,1.8-3.58,3.31-6.79,3.89l-1.27-1.75Z" style="fill:#1d1d1b;"></path><path d="M250.37,143.56v-11.55l2.19-.58,.19,.12v11.79c0,1.75,.72,2.21,2.62,2.21,.74,0,.96,.31,.96,.79,0,.79-.31,1.58-1.51,1.58-2.71,0-4.44-1.1-4.44-4.37Z" style="fill:#1d1d1b;"></path><path d="M276.78,146.34c0,.74-.29,1.58-1.51,1.58-1.03,0-2.4-.29-3.38-1.01-1.22,.86-2.93,1.01-6.12,1.01h-2.67c-2.45,0-3.81-.1-5.35-.72-.74,.48-1.68,.72-2.93,.72l.53-2.38c.65,0,1.42-.07,1.71-.24,.29-.48,.55-1.37,.91-2.59l2.47-.41,.1,.1c-.38,1.15-.77,2.09-1.18,2.86,.55,.17,1.2,.24,2.02,.26,3.94-3.82,6.5-6.05,8.66-6.05s3.6,2.06,3.6,4.01c0,.6-.12,1.13-.34,1.63,.6,.24,1.42,.43,2.52,.43,.77,0,.96,.34,.96,.79Zm-5.52-1.22c.19-.29,.34-.74,.34-1.25,0-.91-.77-2.11-1.85-2.11-1.35,0-3.36,1.56-5.74,3.79h2.19c3.19,0,4.32-.07,5.06-.43Zm-1.56-8.16l-2.23-1.56,1.39-2.06,2.23,1.54-1.39,2.09Z" style="fill:#1d1d1b;"></path><path d="M291.58,146.34c0,.74-.24,1.58-1.46,1.58-3.58,0-4.97-.89-5.83-2.47-.57,.19-1.2,.43-1.89,.72-3.17,1.32-4.95,1.75-7.13,1.75l.53-2.38c1.92,0,3.29-.24,5.93-1.15,1.2-.41,2.11-.67,2.95-.86-.34-.17-.77-.36-1.27-.62-1.92-.96-2.95-1.3-4.01-1.3-.96,0-1.8,.22-2.54,.46l-.1-.1,.86-2.16c.55-.26,1.37-.48,2.14-.48,.96,0,2.04,.38,4.01,1.37,2.42,1.2,3.77,1.61,5.11,1.68l-.46,2.14c-.62,.05-1.25,.12-1.92,.29,.74,.6,1.92,.74,4.15,.74,.77,0,.94,.34,.94,.79Z" style="fill:#1d1d1b;"></path><path d="M290.62,145.55c.74,0,1.56-.05,2.11-.38,.1-.41,.17-.98,.17-1.85v-11.31l2.16-.58,.21,.12v11.57c0,3.84-1.99,4.8-5.21,4.8l.55-2.38Z" style="fill:#1d1d1b;"></path><path d="M298.3,147.97v-15.96l2.21-.58,.17,.12-.02,16.06-2.19,.46-.17-.1Z" style="fill:#1d1d1b;"></path><path d="M325.54,146.34c0,.74-.29,1.58-1.51,1.58-.91,0-1.68-.24-2.28-.74-.77,3.62-3.34,5.21-7.2,5.21s-5.74-2.02-5.74-4.97c0-1.01,.17-2.04,.41-2.78l1.8-.67,.22,.1c-.14,.77-.22,1.56-.22,2.23,0,2.33,1.01,3.72,4.01,3.72,1.87,0,3.29-.46,4.2-1.61,.24-.74,.43-1.8,.43-3.48v-12.91l2.16-.58,.19,.12v11.59c0,2.18,.87,2.4,2.54,2.4,.79,0,.98,.34,.98,.79Z" style="fill:#1d1d1b;"></path><path d="M342.85,143.49c0,1.42-.72,2.59-1.51,3.26-1.25,1.01-2.98,1.18-6.36,1.18h-2.67c-2.45,0-3.81-.1-5.35-.72-.74,.48-1.68,.72-2.93,.72l.53-2.38c.65,0,1.42-.07,1.71-.24,.29-.48,.55-1.37,.91-2.59l2.47-.41,.1,.1c-.38,1.15-.77,2.09-1.18,2.86,.55,.17,1.2,.24,2.02,.26,3.94-3.82,6.5-6.05,8.66-6.05s3.6,2.06,3.6,4.01Zm-2.04,.38c0-.91-.77-2.11-1.85-2.11-1.35,0-3.36,1.56-5.74,3.79h2.19c3.19,0,4.32-.07,5.06-.43,.19-.29,.34-.74,.34-1.25Z" style="fill:#1d1d1b;"></path><path d="M345.56,147.97v-15.96l2.21-.58,.17,.12-.03,16.06-2.18,.46-.17-.1Z" style="fill:#1d1d1b;"></path><path d="M361.28,146.34c0,.74-.31,1.58-1.54,1.58h-1.65c-.87,2.33-3.19,4.18-7.2,4.25l-1.2-1.78,.14-.22c2.98-.07,5.09-.84,6.1-2.26h-.43c-3.12,0-4.54-1.25-4.54-3.26,0-2.26,1.63-4.8,3.7-4.8,2.28,0,3.79,2.62,3.84,5.69h1.78c.82,0,1.01,.34,1.01,.79Zm-5.69-.79h1.01c-.03-1.85-1.06-3.41-2.04-3.41-.86,0-1.75,.96-1.75,2.18,0,.82,.77,1.22,2.78,1.22Z" style="fill:#1d1d1b;"></path><path d="M369.61,146.34c0,.74-.26,1.58-1.49,1.58-1.61,0-3.14-.31-4.13-1.13-.82,.74-1.9,1.13-3.41,1.13h-.82l.55-2.38h.65c.67,0,1.39-.12,1.75-.38,.29-.55,.62-1.68,1.01-3.53l2.4-.58,.24,.17c-.34,1.49-.67,2.74-1.13,3.72,.6,.31,1.61,.6,3.41,.6,.77,0,.96,.34,.96,.79Zm-5.93-7.85l-2.16-1.51,1.32-2.02,2.16,1.49-1.32,2.04Zm1.22-1.51l1.34-2.02,2.16,1.49-1.34,2.04-2.16-1.51Z" style="fill:#1d1d1b;"></path><path d="M376.8,146.34c0,.74-.29,1.58-1.51,1.58-.94,0-2.28-.24-3.02-1.39-.84,1.06-2.11,1.39-4.18,1.39l.55-2.38c.74,0,1.56-.05,2.11-.38,.1-.41,.17-.98,.17-1.85v-11.31l2.16-.58,.22,.12v11.59c0,2.18,.86,2.4,2.54,2.4,.77,0,.96,.34,.96,.79Z" style="fill:#1d1d1b;"></path><path d="M375.84,145.55c.74,0,1.56-.05,2.11-.38,.1-.41,.17-.98,.17-1.85v-11.31l2.16-.58,.22,.12v11.57c0,3.84-1.99,4.8-5.21,4.8l.55-2.38Z" style="fill:#1d1d1b;"></path><path d="M398.02,145.43c0,1.85-.46,2.64-1.56,2.64-1.03,0-2.11-.19-3.31-.19-.74,0-1.63,.17-2.11,.41-.46,1.61,.41,5.18,.74,7.37l-2.06,.96-.19-.14c-.38-2.52-.91-5.04-.91-6.46,0-2.06,1.39-4.46,4.82-4.46,.77,0,1.68,.1,2.52,.24-.07-1.87-1.25-3.65-2.59-3.65-.77,0-1.54,.7-1.87,2.26l-1.13,.14-.24-.12c.22-2.98,2.02-4.56,3.74-4.56,2.45,0,4.15,2.95,4.15,5.57Z" style="fill:#1d1d1b;"></path><path d="M411.08,146.34c0,.74-.31,1.58-1.54,1.58h-1.65c-.87,2.33-3.19,4.18-7.2,4.25l-1.2-1.78,.14-.22c2.98-.07,5.09-.84,6.1-2.26h-.43c-3.12,0-4.54-1.25-4.54-3.26,0-2.26,1.63-4.8,3.7-4.8,2.28,0,3.79,2.62,3.84,5.69h1.78c.82,0,1.01,.34,1.01,.79Zm-5.69-.79h1.01c-.03-1.85-1.06-3.41-2.04-3.41-.86,0-1.75,.96-1.75,2.18,0,.82,.77,1.22,2.78,1.22Z" style="fill:#1d1d1b;"></path><path d="M419.4,146.34c0,.74-.26,1.58-1.49,1.58-1.61,0-3.14-.31-4.13-1.13-.82,.74-1.9,1.13-3.41,1.13h-.82l.55-2.38h.65c.67,0,1.39-.12,1.75-.38,.29-.55,.62-1.68,1.01-3.53l2.4-.58,.24,.17c-.34,1.49-.67,2.74-1.13,3.72,.6,.31,1.61,.6,3.41,.6,.77,0,.96,.34,.96,.79Zm-5.93-7.85l-2.16-1.51,1.32-2.02,2.16,1.49-1.32,2.04Zm1.22-1.51l1.34-2.02,2.16,1.49-1.34,2.04-2.16-1.51Z" style="fill:#1d1d1b;"></path><path d="M431.31,146.34c0,.74-.29,1.58-1.51,1.58-1.32,0-2.54-.67-3.55-1.87-.84,1.56-2.93,1.87-6.5,1.87h-1.85l.53-2.38h2.52c2.81,0,3.62-.38,3.96-.84-.82-1.27-3.5-3.6-5.4-5.09l-.12-.14,.6-2.86,8.06-4.39,.19,.12-.79,2.9-5.69,3.05c2.26,1.99,3.5,3.26,4.8,4.63,1.37,1.51,2.38,2.62,3.79,2.62,.77,0,.96,.34,.96,.79Z" style="fill:#1d1d1b;"></path><path d="M440.86,145.26c0,1.75-.86,2.95-2.59,2.95-1.22,0-3.03-.5-4.78-1.73-.91,1.13-2.06,1.44-3.7,1.44l.53-2.38c1.03,0,1.44-.36,2.11-1.61,.84-1.49,2.09-4.08,4.27-4.08s4.15,2.64,4.15,5.4Zm-4.2-3.12c-.77,0-1.29,1.01-2.09,2.5,1.22,.79,2.4,1.22,3.14,1.22,.31,0,.7-.05,.98-.26,.07-1.06-.94-3.46-2.04-3.46Z" style="fill:#1d1d1b;"></path><path d="M448.71,147.42c0-.96,.19-2.18,.41-2.78l1.8-.67,.22,.1c-.14,.77-.22,1.56-.22,2.23,0,2.33,1.01,3.72,4.01,3.72,1.87,0,3.29-.46,4.2-1.61,.24-.74,.43-1.8,.43-3.48v-12.91l2.18-.58,.19,.12-.03,13.13c0,5.4-2.81,7.7-7.46,7.7-3.72,0-5.74-2.02-5.74-4.97Z" style="fill:#1d1d1b;"></path><path d="M465.27,129.78c-.53,0-1.13,.17-1.85,.62l-.74-1.2c.89-.79,1.66-1.06,2.38-1.06,1.3,0,1.85,.62,3.19,.62,.34,0,.7-.05,1.05-.19l.51,1.39c-.6,.31-1.15,.41-1.66,.41-1.32,0-1.66-.6-2.88-.6Zm-.29,18.19v-15.96l2.21-.58,.17,.12-.02,16.06-2.19,.46-.17-.1Z" style="fill:#1d1d1b;"></path><path d="M487.35,146.34c0,.74-.31,1.58-1.56,1.58-1.32,0-2.16-.26-2.83-1.2-.98,.89-2.71,1.37-4.94,1.37-.53,0-1.9-.07-2.76-.29l.34-2.26,.12-.1c.79,.17,1.99,.22,2.54,.22,1.32,0,2.88-.22,3.74-.7l-.03-.02c-.46-.86-2.04-4.01-3.05-5.78l1.75-1.92h.21c.65,1.51,2.33,5.3,2.67,6.02,.91,1.94,1.39,2.28,2.78,2.28,.77,0,1.01,.34,1.01,.79Z" style="fill:#1d1d1b;"></path><path d="M503.91,143.97c0,2.81-1.97,3.96-4.75,3.96-1.15,0-2.11-.26-2.9-.62-.55,.41-1.27,.62-2.23,.62-1.61,0-2.95-.53-3.72-1.06-.94,.74-2.26,1.06-4.46,1.06l.53-2.38c1.54,0,2.4-.12,2.88-.38,.26-.43,.53-1.44,.82-2.62l2.57-.38,.1,.12c-.38,1.1-.7,2.04-1.08,2.78,.72,.26,1.78,.48,2.64,.48,.41,0,.82-.07,1.06-.24,.24-.34,.58-1.49,.94-2.76l2.4-.38,.1,.1c-.38,1.2-.72,2.21-1.08,3.05,.53,.14,1.13,.24,1.73,.24,.84,0,1.7-.07,2.18-.29,.34-1.08-.36-2.81-1.08-4.37l2.04-1.56,.14,.02c.7,1.7,1.2,3.38,1.2,4.61Zm-8.45-5.47l-2.18-1.51,1.34-2.02,2.16,1.49-1.32,2.04Zm1.34-3.02l-2.18-1.54,1.37-1.99,2.16,1.46-1.35,2.06Zm1.25-.5l2.16,1.49-1.37,2.04-2.16-1.51,1.37-2.02Z" style="fill:#1d1d1b;"></path><path d="M506.79,147.97v-15.96l2.21-.58,.17,.12-.03,16.06-2.18,.46-.17-.1Z" style="fill:#1d1d1b;"></path><path d="M508.71,150.49l.14-.22c4.27-.77,6.7-2.78,6.7-3.94-.07-.89-.86-2.69-1.73-4.25l1.73-1.9h.22c1.05,1.92,1.68,4.13,1.68,5.57,0,.84-.22,1.75-.67,2.59-.98,1.8-3.58,3.31-6.79,3.89l-1.27-1.75Z" style="fill:#1d1d1b;"></path><path d="M541.56,146.34c0,.74-.29,1.58-1.54,1.58-.6,0-1.25-.19-1.78-.53-.65,3.41-3.46,4.99-7.11,4.99s-5.74-2.04-5.74-4.97c0-1.08,.21-2.16,.41-2.78l1.8-.67,.22,.1c-.14,.86-.22,1.61-.22,2.23,0,2.21,.89,3.72,4.01,3.72,2.45,0,3.7-.89,4.37-1.75,.55-1.7-.19-3.48-1.18-5.64l2.09-1.49h.14c.26,.7,.77,2.45,1.15,3.19,.46,.86,1.13,1.22,2.23,1.22,.84,0,1.13,.34,1.13,.79Zm-9.74-6l-2.23-1.56,1.39-2.06,2.23,1.54-1.39,2.09Z" style="fill:#1d1d1b;"></path><path d="M540.6,145.55h.22c1.06,0,2.02-.05,2.45-.24,.34-1.08-.43-2.74-1.22-4.42l1.97-1.54h.24c.82,1.7,1.27,3.53,1.27,4.58,0,1.13-.43,2.28-1.2,3.05-.72,.7-1.7,.94-4.01,.94h-.26l.55-2.38Zm.98,6.22l1.39-2.04,2.23,1.51-1.39,2.09-2.23-1.56Z" style="fill:#1d1d1b;"></path><path d="M565.35,146.34c0,.74-.31,1.58-1.56,1.58-1.32,0-2.16-.26-2.83-1.2-.98,.89-2.71,1.37-4.95,1.37-.53,0-1.9-.07-2.76-.29l.34-2.26,.12-.1c.79,.17,1.99,.22,2.54,.22,1.32,0,2.88-.22,3.74-.7l-.02-.02c-.46-.86-2.04-4.01-3.05-5.78l1.75-1.92h.22c.65,1.51,2.33,5.3,2.66,6.02,.91,1.94,1.39,2.28,2.79,2.28,.77,0,1.01,.34,1.01,.79Z" style="fill:#1d1d1b;"></path><path d="M578.11,146.34c0,.94-.53,1.58-1.56,1.58s-1.78-.24-2.42-.82c-.41,.72-1.01,1.1-1.97,1.1-1.22,0-2.98-.62-4.54-1.73-.96,1.22-1.92,1.44-3.79,1.44l.58-2.38c1.01,0,1.34-.24,2.02-1.32,1.1-1.82,2.26-4.37,4.37-4.37,1.8,0,2.64,1.68,3.6,3.65,.84,1.7,1.27,2.04,2.71,2.04,.72,0,1.01,.31,1.01,.79Zm-5.16-.91l-.14-.31c-.89-2.11-1.51-2.98-2.09-2.98-.72,0-1.42,1.2-2.09,2.54,1.1,.74,2.33,1.25,3.12,1.25,.58,0,.94-.19,1.2-.5Z" style="fill:#1d1d1b;"></path><path d="M592.92,146.34c0,.74-.24,1.58-1.46,1.58-3.58,0-4.97-.89-5.83-2.47-.57,.19-1.2,.43-1.89,.72-3.17,1.32-4.95,1.75-7.13,1.75l.53-2.38c1.92,0,3.29-.24,5.93-1.15,1.2-.41,2.11-.67,2.95-.86-.34-.17-.77-.36-1.27-.62-1.92-.96-2.95-1.3-4.01-1.3-.96,0-1.8,.22-2.54,.46l-.1-.1,.86-2.16c.55-.26,1.37-.48,2.14-.48,.96,0,2.04,.38,4.01,1.37,2.42,1.2,3.77,1.61,5.11,1.68l-.46,2.14c-.62,.05-1.25,.12-1.92,.29,.74,.6,1.92,.74,4.15,.74,.77,0,.94,.34,.94,.79Z" style="fill:#1d1d1b;"></path><path d="M602.47,145.26c0,1.75-.87,2.95-2.59,2.95-1.22,0-3.02-.5-4.78-1.73-.91,1.13-2.06,1.44-3.7,1.44l.53-2.38c1.03,0,1.44-.36,2.11-1.61,.84-1.49,2.09-4.08,4.27-4.08s4.15,2.64,4.15,5.4Zm-4.2-3.12c-.77,0-1.3,1.01-2.09,2.5,1.22,.79,2.4,1.22,3.14,1.22,.31,0,.7-.05,.98-.26,.07-1.06-.94-3.46-2.04-3.46Z" style="fill:#1d1d1b;"></path><path d="M627.29,146.34c0,.74-.29,1.58-1.51,1.58-2.81,0-4.78-.91-5.9-4.13-4.44,1.1-7.35,4.06-7.35,7.18,0,2.95,2.67,4.56,6.87,4.56,1.51,0,3.22-.26,4.8-.77l.14,.14-.67,1.97c-1.03,.62-3,1.03-4.92,1.03-4.97,0-8.42-2.38-8.42-6.24,0-4.08,3.6-7.49,7.51-9.29l-.24-.07c-1.8-.53-2.83-.7-3.79-.7-1.13,0-2.35,.24-3.22,.53l-.1-.12,.86-2.11c.67-.36,1.75-.58,2.64-.58,.84,0,1.68,.14,3.24,.6,2.57,.77,4.44,1.03,6.72,1.03l-.58,2.35c-.5,.02-.98,.05-1.46,.1,.74,1.56,1.94,2.14,4.42,2.14,.77,0,.96,.34,.96,.79Zm-9.74-9.53l-2.23-1.56,1.39-2.06,2.23,1.54-1.39,2.09Z" style="fill:#1d1d1b;"></path><path d="M635.62,146.34c0,.74-.26,1.58-1.49,1.58-1.61,0-3.14-.31-4.13-1.13-.82,.74-1.9,1.13-3.41,1.13h-.82l.55-2.38h.65c.67,0,1.39-.12,1.75-.38,.29-.55,.62-1.68,1.01-3.53l2.4-.58,.24,.17c-.34,1.49-.67,2.74-1.13,3.72,.6,.31,1.61,.6,3.41,.6,.77,0,.96,.34,.96,.79Zm-5.57,4.87l-1.32,2.04-2.18-1.51,1.34-2.02,2.16,1.49Zm1.29-1.49l2.16,1.49-1.34,2.04-2.16-1.51,1.34-2.02Z" style="fill:#1d1d1b;"></path><path d="M655.32,146.34c0,.74-.29,1.58-1.51,1.58-1.03,0-2.43-.29-3.41-1.03-.77,.72-1.78,1.03-2.98,1.03s-2.11-.26-2.9-.62c-.55,.41-1.27,.62-2.23,.62-1.61,0-2.95-.53-3.72-1.06-.94,.74-2.26,1.06-4.46,1.06l.53-2.38c1.54,0,2.4-.12,2.88-.38,.26-.43,.53-1.44,.82-2.62l2.57-.38,.1,.12c-.38,1.1-.7,2.04-1.08,2.78,.72,.26,1.78,.48,2.64,.48,.41,0,.82-.07,1.06-.24,.24-.34,.58-1.49,.94-2.76l2.4-.38,.1,.1c-.38,1.2-.72,2.21-1.08,3.05,.53,.14,1.13,.24,1.73,.24,.55,0,1.13-.1,1.49-.31,.14-.31,.29-.89,.29-1.78,0-.48-.05-1.1-.12-1.73l2.28-.84,.19,.07c.05,.46,.07,.89,.07,1.3,0,1.08-.12,1.97-.34,2.71,.6,.29,1.49,.58,2.81,.58,.77,0,.96,.34,.96,.79Zm-11.59-7.85l-2.18-1.51,1.34-2.02,2.16,1.49-1.32,2.04Zm1.34-3.02l-2.18-1.54,1.37-1.99,2.16,1.46-1.35,2.06Zm1.25-.5l2.16,1.49-1.37,2.04-2.16-1.51,1.37-2.02Z" style="fill:#1d1d1b;"></path><path d="M654.36,145.55c.74,0,1.56-.05,2.11-.38,.1-.41,.17-.98,.17-1.85v-11.31l2.16-.58,.21,.12v11.57c0,3.84-1.99,4.8-5.21,4.8l.55-2.38Z" style="fill:#1d1d1b;"></path><path d="M662.04,147.97v-15.96l2.21-.58,.17,.12-.02,16.06-2.19,.46-.17-.1Z" style="fill:#1d1d1b;"></path><path d="M681.77,146.34c0,.74-.29,1.58-1.51,1.58-.91,0-1.54-.22-1.99-.53-.82,2.28-3.46,4.2-7.2,4.85l-1.27-1.75,.14-.22c4.25-.79,6.17-2.54,6.77-4.25-.43-1.13-1.13-2.57-1.82-3.94l1.73-1.9h.26c.5,1.44,1.01,2.71,1.25,3.36,.65,1.7,1.06,1.99,2.67,1.99,.77,0,.98,.34,.98,.79Zm-5.09-8.67l-2.23-1.56,1.39-2.06,2.23,1.54-1.39,2.09Z" style="fill:#1d1d1b;"></path><path d="M689.81,135.25l-5.74,3.02c4.37,2.88,5.09,4.49,5.09,5.9,0,2.16-1.71,3.74-6.58,3.74h-2.33l.53-2.38h1.71c2.26,0,4.18-.41,4.78-.79,0-1.56-2.62-3.36-5.4-5.14l-.12-.14,.6-2.86,8.06-4.39,.19,.12-.79,2.9Z" style="fill:#1d1d1b;"></path><path d="M700.7,146.34c0,.74-.29,1.58-1.51,1.58-.91,0-1.54-.22-1.99-.53-.82,2.28-3.46,4.2-7.2,4.85l-1.27-1.75,.14-.22c4.25-.79,6.17-2.54,6.77-4.25-.43-1.13-1.13-2.57-1.82-3.94l1.73-1.9h.26c.5,1.44,1.01,2.71,1.25,3.36,.65,1.7,1.06,1.99,2.67,1.99,.77,0,.98,.34,.98,.79Z" style="fill:#1d1d1b;"></path><path d="M710.25,145.26c0,1.75-.86,2.95-2.59,2.95-1.22,0-3.03-.5-4.78-1.73-.91,1.13-2.06,1.44-3.7,1.44l.53-2.38c1.03,0,1.44-.36,2.11-1.61,.84-1.49,2.09-4.08,4.27-4.08s4.15,2.64,4.15,5.4Zm-4.2-3.12c-.77,0-1.29,1.01-2.09,2.5,1.22,.79,2.4,1.22,3.14,1.22,.31,0,.7-.05,.98-.26,.07-1.06-.94-3.46-2.04-3.46Z" style="fill:#1d1d1b;"></path></g></g></g></g></svg> 