<svg width="366" height="78" viewBox="0 0 366 78" fill="none" xmlns="http://www.w3.org/2000/svg">
<path d="M45.5383 26.9718C38.524 24.9012 31.7531 23.9906 26.1198 24.1535L27.2922 28.8794C31.7928 28.2468 37.9179 28.8123 44.356 30.7104C46.9193 31.4677 49.3236 32.3784 51.4994 33.3753L52.5029 29.4067C50.3072 28.5056 47.9724 27.6908 45.5383 26.9718Z" fill="#1D1D1B"/>
<path d="M58.8813 3.67773C71.7127 10.1675 80.4557 23.1326 80.4557 38.0725C80.4557 59.4925 62.4679 76.8577 40.2875 76.8864" fill="#218A37"/>
<path d="M40.2875 76.8817L46.5666 52.1736L47.58 48.157L51.6236 32.249L52.642 28.2324L58.8813 3.67773" fill="#218A37"/>
<path d="M21.5546 3.68726L26.2738 22.5958L27.4263 27.2354L31.5743 43.8624L32.7665 48.6363L39.8106 76.8816" fill="#0079B1"/>
<path d="M39.8106 76.8816C17.7791 76.6611 0 59.3775 0 38.0676C0 23.1326 8.73309 10.1674 21.5545 3.68726" fill="#0079B1"/>
<path d="M67.5647 37.7994C66.2532 36.3902 64.604 35.0003 62.6666 33.6582C60.8286 34.6839 59.8649 37.7994 59.8649 37.7994L59.9145 37.8761C60.0934 38.0486 60.2523 38.2212 60.4014 38.3937V38.4033C60.9776 39.0552 61.4446 39.707 61.7923 40.3493C61.9314 40.5985 62.0506 40.8478 62.15 41.097C62.5573 42.1323 62.6368 43.1292 62.3487 44.0495C61.2657 47.4717 55.2946 48.9384 47.5799 48.1523C44.649 47.8648 41.4697 47.2512 38.201 46.2831C35.8364 45.5833 33.6109 44.7589 31.5742 43.8578C27.2226 41.9118 23.7353 39.5728 21.5992 37.2434C21.4701 37.0996 21.3508 36.9654 21.2416 36.8312C19.9698 35.3262 19.2744 33.8404 19.3042 32.4695C19.3042 32.3929 19.3042 32.3258 19.3141 32.2491C19.334 31.9615 19.3837 31.6739 19.4731 31.4055C19.5228 31.2617 19.5724 31.1179 19.632 30.9837C19.632 30.9645 19.642 30.955 19.642 30.955C15.9759 27.5231 11.2169 29.1048 10.9188 29.2007L10.889 29.3157C10.8691 29.402 10.8493 29.4979 10.8393 29.5937C10.8195 29.6992 10.7996 29.8046 10.7897 29.9101L10.7599 30.2552C10.74 30.5332 10.7499 30.8112 10.7698 31.0796C10.7698 31.1658 10.7797 31.2521 10.7996 31.3384C10.7996 31.463 10.8195 31.5876 10.8493 31.7123C10.8791 31.904 10.9188 32.0957 10.9784 32.297C11.664 34.8661 13.8298 37.6173 17.1085 40.263C17.1184 40.2726 17.1284 40.2726 17.1284 40.2726C20.9932 43.3881 26.4178 46.331 32.7714 48.6316C34.1524 49.1301 35.5632 49.5902 37.0237 50.0216C40.2924 50.9898 43.5015 51.6992 46.5715 52.1689C59.0253 54.0765 69.1096 51.9963 70.8384 46.5515C71.6729 43.8961 70.4111 40.8286 67.5697 37.7994H67.5647Z" fill="#1D1D1B"/>
<path d="M21.5943 37.2434L17.1234 40.2726C17.1234 40.2726 17.1135 40.2726 17.1035 40.263C16.7757 40.0234 12.0465 36.5628 10.9735 32.297C10.9139 32.0957 10.8741 31.904 10.8443 31.7123C10.8145 31.5876 10.7947 31.463 10.7947 31.3384C10.7748 31.2521 10.7648 31.1658 10.7648 31.0796C10.745 30.8112 10.735 30.5332 10.7549 30.2552L10.7847 29.9101C10.7947 29.8046 10.8145 29.6992 10.8344 29.5937C10.8443 29.4979 10.8642 29.402 10.8841 29.3157C10.8841 29.2774 10.894 29.2486 10.9039 29.2103L10.9139 29.2007C11.2119 29.1048 15.9709 27.5231 19.637 30.955C19.637 30.955 19.6271 30.9645 19.6271 30.9837C19.5575 31.0796 19.339 31.5205 19.3092 32.2491C19.2992 32.3258 19.2992 32.3929 19.2992 32.4695C19.3092 33.4761 19.7066 34.9619 21.2366 36.8312C21.3459 36.9654 21.4651 37.0996 21.5943 37.2434Z" fill="#1D1D1B"/>
<path d="M99.0098 13.2638C99.0098 7.26768 103.143 4.67944 107.773 4.67944C113.421 4.67944 116.312 8.26942 116.312 13.3692C116.312 19.3653 112.209 21.9535 107.579 21.9535C101.931 21.9535 99.0098 18.3635 99.0098 13.2638ZM113.063 13.3932C113.063 9.64981 111.354 7.1143 107.773 7.1143C104.191 7.1143 102.264 9.62585 102.264 13.2398C102.264 16.8537 103.972 19.5187 107.579 19.5187C111.185 19.5187 113.063 17.0071 113.063 13.3932Z" fill="#0079B1"/>
<path d="M130.172 15.6459C130.172 20.0028 127.112 21.9488 123.754 21.9488C122.929 21.9488 122.129 21.8194 121.384 21.642V26.3823H118.408V10.2921L121.384 10.0093V11.0111C122.626 10.2921 123.947 9.90869 125.159 9.90869C128.632 9.90869 130.172 12.3436 130.172 15.6507V15.6459ZM127.057 15.6699C127.057 13.1056 126.064 12.1327 124.221 12.1327C123.336 12.1327 122.427 12.3627 121.384 12.9283V19.5906C122.02 19.744 122.651 19.8446 123.366 19.8446C125.517 19.8446 127.057 18.5361 127.057 15.6699Z" fill="#0079B1"/>
<path d="M142.323 16.4942H134.141C134.28 18.9051 135.795 19.7727 137.474 19.7727C138.905 19.7727 139.874 19.3892 141.086 18.7469L142.134 20.5395C140.952 21.3064 139.297 21.9487 137.256 21.9487C133.922 21.9487 131.165 20.3862 131.165 16.082C131.165 12.5208 133.232 9.90381 137.146 9.90381C140.644 9.90381 142.437 12.0319 142.437 14.7735C142.437 15.1857 142.407 15.9766 142.328 16.4894L142.323 16.4942ZM134.275 14.5722H139.566V14.4955C139.566 12.6502 138.572 11.9073 137.166 11.9073C135.487 11.9073 134.578 12.933 134.275 14.5722Z" fill="#0079B1"/>
<path d="M155.298 13.4412V21.6181H152.322V14.3422C152.322 12.6743 151.826 12.1375 150.365 12.1375C149.401 12.1375 148.299 12.4442 147.25 12.9331V21.6181H144.275V10.2921L147.25 10.0093V11.1117C148.433 10.4695 149.923 9.90869 151.547 9.90869C153.833 9.90869 155.293 10.9344 155.293 13.4459L155.298 13.4412Z" fill="#0079B1"/>
<path d="M174.304 3.70645V21.618H171.686L171.493 20.7744C170.251 21.5173 168.959 21.9535 167.662 21.9535C164.329 21.9535 162.566 19.8254 162.566 16.2115C162.566 11.8786 165.571 9.90863 168.904 9.90863C169.729 9.90863 170.559 10.038 171.329 10.2441V3.98445L174.304 3.70166V3.70645ZM168.462 19.7487C169.401 19.7487 170.31 19.4947 171.329 18.9291V12.2908C170.693 12.0847 170.032 11.984 169.262 11.984C167.225 11.984 165.68 13.3165 165.68 16.1875C165.68 18.6751 166.699 19.7487 168.462 19.7487Z" fill="#0079B1"/>
<path d="M176.152 15.9048C176.152 11.4712 179.182 9.90869 182.625 9.90869C186.758 9.90869 188.685 12.5209 188.685 15.9287C188.685 20.2856 185.71 21.9488 182.183 21.9488C178.08 21.9488 176.147 19.2072 176.147 15.9L176.152 15.9048ZM185.576 15.9048C185.576 13.5706 184.637 12.0608 182.491 12.0608C180.067 12.0608 179.242 13.5706 179.242 15.9048C179.242 18.239 180.181 19.8015 182.411 19.8015C184.836 19.8015 185.581 18.1335 185.581 15.9048H185.576Z" fill="#0079B1"/>
<path d="M189.649 15.9048C189.649 11.4712 192.679 9.90869 196.122 9.90869C200.255 9.90869 202.183 12.5209 202.183 15.9287C202.183 20.2856 199.207 21.9488 195.68 21.9488C191.577 21.9488 189.644 19.2072 189.644 15.9L189.649 15.9048ZM199.073 15.9048C199.073 13.5706 198.134 12.0608 195.988 12.0608C193.564 12.0608 192.739 13.5706 192.739 15.9048C192.739 18.239 193.678 19.8015 195.908 19.8015C198.333 19.8015 199.078 18.1335 199.078 15.9048H199.073Z" fill="#0079B1"/>
<path d="M212.078 10.1387L211.581 12.957C211.114 12.7796 210.588 12.6502 209.902 12.6502C208.963 12.6502 208 12.9042 207.011 14.2367V21.618H204.035V10.2633L207.011 10.0045V11.6197C207.92 10.4646 209.132 9.90381 210.483 9.90381C211.065 9.90381 211.532 9.9805 212.083 10.1339L212.078 10.1387Z" fill="#0079B1"/>
<path d="M211.994 20.415L213.26 18.5457C214.721 19.5187 216.181 19.8542 217.423 19.8542C218.884 19.8542 219.629 19.3941 219.629 18.5745C219.629 17.9083 219.162 17.4194 217.095 16.9065L216.271 16.7004C213.707 16.0581 212.55 15.0852 212.55 13.3165C212.55 11.2939 214.532 9.90869 217.319 9.90869C218.918 9.90869 220.543 10.2442 222.197 11.1405L221.04 12.9858C219.495 12.2429 218.586 12.0128 217.374 12.0128C216.161 12.0128 215.58 12.473 215.58 13.1392C215.58 13.7527 215.993 14.0355 217.508 14.395L218.392 14.6011C221.392 15.344 222.634 16.4703 222.634 18.3157C222.634 20.391 220.925 21.9536 217.508 21.9536C215.223 21.9536 213.514 21.4168 211.999 20.415H211.994Z" fill="#0079B1"/>
<path d="M223.484 20.1034C223.484 19.1304 224.363 18.3108 225.441 18.3108C226.519 18.3108 227.398 19.1304 227.398 20.1034C227.398 21.0764 226.514 21.896 225.441 21.896C224.368 21.896 223.484 21.1003 223.484 20.1034Z" fill="#0079B1"/>
<path d="M233.951 13.2638C233.951 7.26768 238.084 4.67944 242.713 4.67944C248.362 4.67944 251.253 8.26942 251.253 13.3692C251.253 19.3653 247.149 21.9535 242.52 21.9535C236.871 21.9535 233.951 18.3635 233.951 13.2638ZM248.004 13.3932C248.004 9.64981 246.295 7.1143 242.713 7.1143C239.132 7.1143 237.204 9.62585 237.204 13.2398C237.204 16.8537 238.913 19.5187 242.525 19.5187C246.136 19.5187 248.009 17.0071 248.009 13.3932H248.004Z" fill="#218A37"/>
<path d="M265.112 15.6459C265.112 20.0028 262.052 21.9488 258.694 21.9488C257.87 21.9488 257.07 21.8194 256.325 21.642V26.3823H253.349V10.2921L256.325 10.0093V11.0111C257.567 10.2921 258.888 9.90869 260.1 9.90869C263.573 9.90869 265.112 12.3436 265.112 15.6507V15.6459ZM261.998 15.6699C261.998 13.1056 261.004 12.1327 259.161 12.1327C258.277 12.1327 257.368 12.3627 256.325 12.9283V19.5906C256.961 19.744 257.591 19.8446 258.307 19.8446C260.458 19.8446 261.998 18.5361 261.998 15.6699Z" fill="#218A37"/>
<path d="M277.258 16.4942H269.077C269.216 18.9051 270.731 19.7727 272.41 19.7727C273.841 19.7727 274.809 19.3892 276.021 18.7469L277.069 20.5395C275.887 21.3064 274.233 21.9487 272.191 21.9487C268.858 21.9487 266.101 20.3862 266.101 16.082C266.101 12.5208 268.168 9.90381 272.082 9.90381C275.579 9.90381 277.373 12.0319 277.373 14.7735C277.373 15.1857 277.343 15.9766 277.263 16.4894L277.258 16.4942ZM269.211 14.5722H274.501V14.4955C274.501 12.6502 273.508 11.9073 272.102 11.9073C270.423 11.9073 269.514 12.933 269.211 14.5722Z" fill="#218A37"/>
<path d="M290.239 13.4412V21.6181H287.263V14.3422C287.263 12.6743 286.766 12.1375 285.306 12.1375C284.342 12.1375 283.239 12.4442 282.191 12.9331V21.6181H279.216V10.2921L282.191 10.0093V11.1117C283.373 10.4695 284.864 9.90869 286.488 9.90869C288.773 9.90869 290.234 10.9344 290.234 13.4459L290.239 13.4412Z" fill="#218A37"/>
<path d="M316.438 13.3932V21.6181H313.462V14.3422C313.462 12.6743 312.995 12.1375 311.783 12.1375C310.874 12.1375 309.856 12.4202 308.862 12.9043C308.892 13.0577 308.892 13.2398 308.892 13.3932V21.6181H305.917V14.3422C305.917 12.6743 305.45 12.1375 304.237 12.1375C303.353 12.1375 302.335 12.4202 301.371 12.9043V21.6181H298.396V10.2921L301.371 10.0093V11.0111C302.529 10.3976 303.905 9.90869 305.395 9.90869C306.691 9.90869 307.735 10.2921 308.316 11.1884C309.583 10.4982 311.237 9.90869 312.946 9.90869C315.042 9.90869 316.443 10.9344 316.443 13.3932H316.438Z" fill="#218A37"/>
<path d="M318.505 6.39536C318.505 5.39362 319.414 4.55005 320.487 4.55005C321.614 4.55005 322.523 5.39362 322.523 6.39536C322.523 7.39711 321.614 8.21672 320.487 8.21672C319.359 8.21672 318.505 7.39711 318.505 6.39536ZM319.056 10.2921L322.032 10.0093V21.618H319.056V10.2921Z" fill="#218A37"/>
<path d="M335.777 13.4412V21.6181H332.801V14.3422C332.801 12.6743 332.305 12.1375 330.844 12.1375C329.88 12.1375 328.778 12.4442 327.729 12.9331V21.6181H324.754V10.2921L327.729 10.0093V11.1117C328.912 10.4695 330.402 9.90869 332.026 9.90869C334.312 9.90869 335.772 10.9344 335.772 13.4459L335.777 13.4412Z" fill="#218A37"/>
<path d="M349.249 3.70645V21.618H346.631L346.437 20.7744C345.196 21.5173 343.904 21.9535 342.607 21.9535C339.274 21.9535 337.511 19.8254 337.511 16.2115C337.511 11.8786 340.516 9.90863 343.849 9.90863C344.674 9.90863 345.504 10.038 346.274 10.2441V3.98445L349.249 3.70166V3.70645ZM343.407 19.7487C344.346 19.7487 345.255 19.4947 346.274 18.9291V12.2908C345.638 12.0847 344.977 11.984 344.207 11.984C342.17 11.984 340.625 13.3165 340.625 16.1875C340.625 18.6751 341.644 19.7487 343.407 19.7487Z" fill="#218A37"/>
<path d="M350.6 20.415L351.867 18.5457C353.328 19.5187 354.788 19.8542 356.03 19.8542C357.49 19.8542 358.236 19.3941 358.236 18.5745C358.236 17.9083 357.769 17.4194 355.702 16.9065L354.877 16.7004C352.314 16.0581 351.157 15.0852 351.157 13.3165C351.157 11.2939 353.139 9.90869 355.926 9.90869C357.525 9.90869 359.15 10.2442 360.804 11.1405L359.646 12.9858C358.101 12.2429 357.192 12.0128 355.98 12.0128C354.768 12.0128 354.187 12.473 354.187 13.1392C354.187 13.7527 354.599 14.0355 356.114 14.395L356.999 14.6011C359.999 15.344 361.241 16.4703 361.241 18.3157C361.241 20.391 359.532 21.9536 356.114 21.9536C353.829 21.9536 352.12 21.4168 350.605 20.415H350.6Z" fill="#218A37"/>
<path d="M362.085 20.1034C362.085 19.1304 362.965 18.3108 364.043 18.3108C365.121 18.3108 366 19.1304 366 20.1034C366 21.0764 365.116 21.896 364.043 21.896C362.97 21.896 362.085 21.1003 362.085 20.1034Z" fill="#218A37"/>
<path d="M115.641 40.7183L116.327 39.7213C117.127 40.2678 118.016 40.4691 118.701 40.4691C119.809 40.4691 120.455 40.1096 120.455 39.3475C120.455 38.6861 120.053 38.4128 118.687 37.9383L118.443 37.8521C117.077 37.3536 116.004 36.8695 116.004 35.446C116.004 33.9266 117.499 33.2651 118.945 33.2651C119.914 33.2651 120.907 33.5144 121.821 34.1135L121.151 35.1105C120.4 34.6599 119.784 34.4394 118.93 34.4394C118.076 34.4394 117.499 34.751 117.499 35.398C117.499 35.8965 117.837 36.1937 119.124 36.6442L119.382 36.7305C120.634 37.1667 121.975 37.6412 121.975 39.2708C121.975 40.9004 120.644 41.6625 118.776 41.6625C117.46 41.6625 116.416 41.2887 115.641 40.7135V40.7183Z" fill="#1D1D1B"/>
<path d="M128.498 37.507V41.5043H127.102V37.9671C127.102 37.1571 126.868 36.8982 126.173 36.8982C125.721 36.8982 125.219 37.0372 124.742 37.2721V41.5043H123.346V32.9344L124.742 32.7954V36.347C125.298 36.0499 125.984 35.8102 126.729 35.8102C127.812 35.8102 128.498 36.3087 128.498 37.5022V37.507Z" fill="#1D1D1B"/>
<path d="M134.936 39.0119H131.101C131.165 40.1814 131.876 40.608 132.661 40.608C133.331 40.608 133.783 40.421 134.35 40.1095L134.841 40.9818C134.285 41.3557 133.51 41.6672 132.556 41.6672C130.996 41.6672 129.705 40.9099 129.705 38.8154C129.705 37.0851 130.673 35.8149 132.507 35.8149C134.146 35.8149 134.985 36.8502 134.985 38.1827C134.985 38.384 134.97 38.7674 134.936 39.0167V39.0119ZM131.165 38.0773H133.644V38.0389C133.644 37.1426 133.177 36.7831 132.521 36.7831C131.732 36.7831 131.309 37.2816 131.165 38.0773Z" fill="#1D1D1B"/>
<path d="M136.009 34.1038C136.009 33.6197 136.436 33.2075 136.938 33.2075C137.469 33.2075 137.891 33.6197 137.891 34.1038C137.891 34.5879 137.464 34.9905 136.938 34.9905C136.411 34.9905 136.009 34.5927 136.009 34.1038ZM136.267 35.9971L137.663 35.8581V41.4995H136.267V35.9923V35.9971Z" fill="#1D1D1B"/>
<path d="M144.628 41.4181V41.5043H142.963L140.743 38.6765V41.5043H139.347V32.9344L140.743 32.7954V38.4895L143.003 35.9876H144.513V36.0643L142.268 38.5423L144.628 41.4181Z" fill="#1D1D1B"/>
<path d="M150.758 37.507V41.5043H149.362V37.9671C149.362 37.1571 149.128 36.8982 148.433 36.8982C147.981 36.8982 147.479 37.0372 147.002 37.2721V41.5043H145.606V32.9344L147.002 32.7954V36.347C147.558 36.0499 148.244 35.8102 148.989 35.8102C150.072 35.8102 150.758 36.3087 150.758 37.5022V37.507Z" fill="#1D1D1B"/>
<path d="M164.27 33.4329V41.5043H162.824V35.839C162.71 36.1361 162.551 36.5004 162.292 36.9845L160.524 40.3348H159.257L157.514 36.9845C157.24 36.486 157.061 36.1265 156.947 35.815V41.5091H155.526V33.4377H157.116L159.014 36.9893C159.376 37.6747 159.724 38.3841 159.903 38.9209C160.082 38.3841 160.435 37.6651 160.792 36.9893L162.705 33.4377H164.265L164.27 33.4329Z" fill="#1D1D1B"/>
<path d="M165.705 38.7245C165.705 36.5676 167.126 35.8103 168.74 35.8103C170.678 35.8103 171.582 37.0805 171.582 38.7388C171.582 40.8574 170.186 41.6674 168.537 41.6674C166.614 41.6674 165.71 40.3349 165.71 38.7293L165.705 38.7245ZM170.121 38.7245C170.121 37.5933 169.684 36.8552 168.676 36.8552C167.538 36.8552 167.151 37.5885 167.151 38.7245C167.151 39.8604 167.588 40.6177 168.636 40.6177C169.774 40.6177 170.121 39.8077 170.121 38.7245Z" fill="#1D1D1B"/>
<path d="M178.005 37.507V41.5043H176.609V37.9671C176.609 37.1571 176.376 36.8982 175.68 36.8982C175.228 36.8982 174.726 37.0372 174.249 37.2721V41.5043H172.854V32.9344L174.249 32.7954V36.347C174.806 36.0499 175.491 35.8102 176.237 35.8102C177.319 35.8102 178.005 36.3087 178.005 37.5022V37.507Z" fill="#1D1D1B"/>
<path d="M184.185 37.6412V41.5044H182.973L182.868 41.0442C182.198 41.5187 181.527 41.6673 180.866 41.6673C179.818 41.6673 179.123 41.0682 179.123 40.1623C179.123 38.7532 180.812 38.1588 182.789 38.1061V37.8952C182.789 37.1954 182.57 36.8887 181.86 36.8887C181.279 36.8887 180.648 37.09 179.947 37.5261L179.381 36.6682C180.181 36.1314 181.035 35.8198 182.064 35.8198C183.43 35.8198 184.18 36.3423 184.18 37.6508L184.185 37.6412ZM181.318 40.6176C181.785 40.6176 182.262 40.493 182.789 40.1959V39.0024C181.448 39.0647 180.583 39.4002 180.583 40.0089C180.583 40.4068 180.842 40.6176 181.318 40.6176Z" fill="#1D1D1B"/>
<path d="M194.279 37.5069V41.5043H192.883V37.9671C192.883 37.1571 192.664 36.8982 192.093 36.8982C191.666 36.8982 191.189 37.0372 190.727 37.2721C190.742 37.3488 190.742 37.435 190.742 37.5069V41.5043H189.346V37.9671C189.346 37.1571 189.128 36.8982 188.556 36.8982C188.144 36.8982 187.667 37.0372 187.215 37.2721V41.5043H185.819V35.9971L187.215 35.8581V36.3422C187.756 36.0451 188.402 35.8054 189.098 35.8054C189.704 35.8054 190.196 35.9923 190.464 36.4285C191.06 36.093 191.83 35.8054 192.635 35.8054C193.613 35.8054 194.274 36.3039 194.274 37.4974L194.279 37.5069Z" fill="#1D1D1B"/>
<path d="M204.373 37.5069V41.5043H202.977V37.9671C202.977 37.1571 202.759 36.8982 202.187 36.8982C201.76 36.8982 201.283 37.0372 200.821 37.2721C200.836 37.3488 200.836 37.435 200.836 37.5069V41.5043H199.44V37.9671C199.44 37.1571 199.222 36.8982 198.65 36.8982C198.238 36.8982 197.761 37.0372 197.309 37.2721V41.5043H195.913V35.9971L197.309 35.8581V36.3422C197.851 36.0451 198.497 35.8054 199.192 35.8054C199.798 35.8054 200.29 35.9923 200.558 36.4285C201.154 36.093 201.924 35.8054 202.729 35.8054C203.708 35.8054 204.368 36.3039 204.368 37.4974L204.373 37.5069Z" fill="#1D1D1B"/>
<path d="M210.821 39.0119H206.986C207.051 40.1814 207.761 40.608 208.546 40.608C209.217 40.608 209.669 40.421 210.235 40.1095L210.727 40.9818C210.17 41.3557 209.395 41.6672 208.442 41.6672C206.882 41.6672 205.59 40.9099 205.59 38.8154C205.59 37.0851 206.559 35.8149 208.392 35.8149C210.031 35.8149 210.871 36.8502 210.871 38.1827C210.871 38.384 210.856 38.7674 210.821 39.0167V39.0119ZM207.051 38.0773H209.53V38.0389C209.53 37.1426 209.063 36.7831 208.407 36.7831C207.617 36.7831 207.195 37.2816 207.051 38.0773Z" fill="#1D1D1B"/>
<path d="M217.239 32.7954V41.4996H216.012L215.923 41.0874C215.342 41.4468 214.736 41.6625 214.13 41.6625C212.57 41.6625 211.74 40.6272 211.74 38.873C211.74 36.7688 213.146 35.8102 214.711 35.8102C215.098 35.8102 215.486 35.8725 215.848 35.9732V32.9344L217.244 32.7954H217.239ZM214.502 40.5937C214.939 40.5937 215.367 40.469 215.844 40.1958V36.9701C215.545 36.8695 215.237 36.8216 214.875 36.8216C213.921 36.8216 213.196 37.4686 213.196 38.8634C213.196 40.0712 213.673 40.5937 214.497 40.5937H214.502Z" fill="#1D1D1B"/>
<path d="M227.448 38.6141C227.448 40.9436 225.655 41.6673 224.144 41.6673C223.653 41.6673 222.878 41.5906 221.939 41.3174V32.9344L223.335 32.7954V36.3327C223.941 35.9972 224.577 35.8102 225.183 35.8102C226.732 35.8102 227.453 36.9174 227.453 38.6141H227.448ZM225.987 38.5902C225.987 37.4686 225.64 36.8982 224.735 36.8982C224.373 36.8982 223.911 36.9989 223.33 37.2577V40.5457C223.588 40.5937 223.831 40.6224 224.08 40.6224C225.138 40.6224 225.992 40.1 225.992 38.5902H225.987Z" fill="#1D1D1B"/>
<path d="M228.476 34.1038C228.476 33.6197 228.903 33.2075 229.405 33.2075C229.937 33.2075 230.359 33.6197 230.359 34.1038C230.359 34.5879 229.932 34.9905 229.405 34.9905C228.879 34.9905 228.476 34.5927 228.476 34.1038ZM228.734 35.9971L230.13 35.8581V41.4995H228.734V35.9923V35.9971Z" fill="#1D1D1B"/>
<path d="M236.986 37.5308V41.5043H235.59V37.967C235.59 37.157 235.356 36.8982 234.676 36.8982C234.224 36.8982 233.707 37.0467 233.215 37.2864V41.5091H231.819V36.0019L233.215 35.8629V36.3997C233.772 36.0881 234.467 35.8149 235.227 35.8149C236.3 35.8149 236.981 36.3134 236.981 37.5356L236.986 37.5308Z" fill="#1D1D1B"/>
<path d="M248.173 41.418V41.5043H246.509L244.248 38.4512H243.24V41.5043H241.77V33.4329H244.532C246.648 33.4329 247.681 34.4682 247.681 35.8725C247.681 36.9797 247.06 37.9143 245.783 38.2786L248.173 41.418ZM243.24 37.3344H244.353C245.515 37.3344 246.161 36.8599 246.161 35.9252C246.161 35.0529 245.58 34.6072 244.522 34.6072H243.245V37.3344H243.24Z" fill="#1D1D1B"/>
<path d="M253.672 37.6412V41.5044H252.46L252.356 41.0442C251.685 41.5187 251.014 41.6673 250.354 41.6673C249.305 41.6673 248.61 41.0682 248.61 40.1623C248.61 38.7532 250.299 38.1588 252.276 38.1061V37.8952C252.276 37.1954 252.057 36.8887 251.347 36.8887C250.766 36.8887 250.135 37.09 249.435 37.5261L248.868 36.6682C249.668 36.1314 250.522 35.8198 251.551 35.8198C252.917 35.8198 253.667 36.3423 253.667 37.6508L253.672 37.6412ZM250.806 40.6176C251.273 40.6176 251.749 40.493 252.276 40.1959V39.0024C250.935 39.0647 250.07 39.4002 250.07 40.0089C250.07 40.4068 250.329 40.6176 250.806 40.6176Z" fill="#1D1D1B"/>
<path d="M254.666 40.9197L255.262 40.009C255.947 40.4835 256.628 40.6465 257.209 40.6465C257.894 40.6465 258.242 40.4212 258.242 40.0234C258.242 39.6974 258.024 39.4626 257.055 39.2134L256.667 39.1127C255.465 38.8012 254.924 38.3266 254.924 37.4687C254.924 36.4861 255.853 35.8103 257.159 35.8103C257.909 35.8103 258.669 35.9733 259.444 36.4094L258.903 37.3057C258.178 36.9463 257.755 36.8312 257.184 36.8312C256.613 36.8312 256.345 37.0565 256.345 37.3776C256.345 37.6748 256.538 37.8138 257.249 37.9863L257.661 38.087C259.067 38.4465 259.648 38.9977 259.648 39.894C259.648 40.9005 258.848 41.6626 257.249 41.6626C256.176 41.6626 255.376 41.399 254.666 40.9149V40.9197Z" fill="#1D1D1B"/>
<path d="M265.982 37.507V41.5043H264.586V37.9671C264.586 37.1571 264.352 36.8982 263.657 36.8982C263.205 36.8982 262.703 37.0372 262.226 37.2721V41.5043H260.83V32.9344L262.226 32.7954V36.347C262.783 36.0499 263.468 35.8102 264.213 35.8102C265.296 35.8102 265.982 36.3087 265.982 37.5022V37.507Z" fill="#1D1D1B"/>
<path d="M267.348 34.1038C267.348 33.6197 267.775 33.2075 268.277 33.2075C268.808 33.2075 269.231 33.6197 269.231 34.1038C269.231 34.5879 268.803 34.9905 268.277 34.9905C267.75 34.9905 267.348 34.5927 267.348 34.1038ZM267.606 35.9971L269.002 35.8581V41.4995H267.606V35.9923V35.9971Z" fill="#1D1D1B"/>
<path d="M275.778 32.7954V41.4996H274.551L274.462 41.0874C273.88 41.4468 273.274 41.6625 272.668 41.6625C271.108 41.6625 270.279 40.6272 270.279 38.873C270.279 36.7688 271.685 35.8102 273.249 35.8102C273.637 35.8102 274.024 35.8725 274.387 35.9732V32.9344L275.783 32.7954H275.778ZM273.041 40.5937C273.478 40.5937 273.905 40.469 274.382 40.1958V36.9701C274.084 36.8695 273.776 36.8216 273.413 36.8216C272.46 36.8216 271.734 37.4686 271.734 38.8634C271.734 40.0712 272.211 40.5937 273.036 40.5937H273.041Z" fill="#1D1D1B"/>
<path d="M287.795 41.418V41.5043H286.245L285.455 39.3618H282.097L281.322 41.5043H279.812V41.418L282.882 33.4329H284.7L287.785 41.418H287.795ZM285.033 38.2163L283.766 34.7557L282.514 38.2163H285.033Z" fill="#1D1D1B"/>
<path d="M288.838 32.9344L290.234 32.7954V41.4996H288.838V32.9296V32.9344Z" fill="#1D1D1B"/>
<path d="M303.81 33.4329V41.5043H302.365V35.839C302.25 36.1361 302.091 36.5004 301.833 36.9845L300.065 40.3348H298.798L297.054 36.9845C296.781 36.486 296.602 36.1265 296.488 35.815V41.5091H295.067V33.4377H296.657L298.554 36.9893C298.917 37.6747 299.265 38.3841 299.444 38.9209C299.622 38.3841 299.975 37.6651 300.333 36.9893L302.245 33.4377H303.805L303.81 33.4329Z" fill="#1D1D1B"/>
<path d="M310.208 37.6412V41.5044H308.996L308.892 41.0442C308.221 41.5187 307.551 41.6673 306.89 41.6673C305.842 41.6673 305.146 41.0682 305.146 40.1623C305.146 38.7532 306.835 38.1588 308.813 38.1061V37.8952C308.813 37.1954 308.594 36.8887 307.884 36.8887C307.302 36.8887 306.672 37.09 305.971 37.5261L305.405 36.6682C306.205 36.1314 307.059 35.8198 308.087 35.8198C309.453 35.8198 310.204 36.3423 310.204 37.6508L310.208 37.6412ZM307.342 40.6176C307.809 40.6176 308.286 40.493 308.813 40.1959V39.0024C307.471 39.0647 306.607 39.4002 306.607 40.0089C306.607 40.4068 306.865 40.6176 307.342 40.6176Z" fill="#1D1D1B"/>
<path d="M317.128 41.4181V41.5043H315.464L313.244 38.6765V41.5043H311.848V32.9344L313.244 32.7954V38.4895L315.504 35.9876H317.014V36.0643L314.769 38.5423L317.128 41.4181Z" fill="#1D1D1B"/>
<path d="M321.828 41.2934C321.48 41.466 320.973 41.6673 320.278 41.6673C319.309 41.6673 318.509 41.1448 318.509 39.8986V37.0468H317.412V35.9875H318.509V34.7413L319.905 34.54V35.9827H321.689L321.545 37.042H319.905V39.683C319.905 40.3061 320.149 40.5697 320.591 40.5697C320.874 40.5697 321.122 40.493 321.44 40.3684L321.828 41.2886V41.2934Z" fill="#1D1D1B"/>
<path d="M322.29 38.7245C322.29 36.5676 323.711 35.8103 325.325 35.8103C327.262 35.8103 328.166 37.0805 328.166 38.7388C328.166 40.8574 326.771 41.6674 325.121 41.6674C323.199 41.6674 322.295 40.3349 322.295 38.7293L322.29 38.7245ZM326.706 38.7245C326.706 37.5933 326.269 36.8552 325.26 36.8552C324.123 36.8552 323.735 37.5885 323.735 38.7245C323.735 39.8604 324.173 40.6177 325.221 40.6177C326.358 40.6177 326.706 39.8077 326.706 38.7245Z" fill="#1D1D1B"/>
<path d="M334.5 35.863V41.5044H333.288L333.184 41.0826C332.627 41.4086 331.957 41.6674 331.157 41.6674C330.099 41.6674 329.374 41.0826 329.374 39.9371V36.002L330.77 35.863V39.5393C330.77 40.2726 330.988 40.5746 331.713 40.5746C332.151 40.5746 332.642 40.3877 333.109 40.1528V36.0068L334.505 35.8678L334.5 35.863Z" fill="#1D1D1B"/>
<path d="M344.659 37.5069V41.5043H343.263V37.9671C343.263 37.1571 343.045 36.8982 342.473 36.8982C342.046 36.8982 341.569 37.0372 341.107 37.2721C341.122 37.3488 341.122 37.435 341.122 37.5069V41.5043H339.726V37.9671C339.726 37.1571 339.508 36.8982 338.936 36.8982C338.524 36.8982 338.047 37.0372 337.595 37.2721V41.5043H336.199V35.9971L337.595 35.8581V36.3422C338.137 36.0451 338.782 35.8054 339.478 35.8054C340.084 35.8054 340.576 35.9923 340.844 36.4285C341.44 36.093 342.21 35.8054 343.015 35.8054C343.993 35.8054 344.654 36.3039 344.654 37.4974L344.659 37.5069Z" fill="#1D1D1B"/>
<path d="M141.19 52.4468C141.19 49.3073 143.088 48.2097 145.09 48.2097C146.172 48.2097 147.027 48.4733 147.837 48.943L147.241 50.0023C146.749 49.7147 146.068 49.4176 145.164 49.4176C143.435 49.4176 142.74 50.5871 142.74 52.3701C142.74 54.2633 143.604 55.3849 145.244 55.3849C146.148 55.3849 146.754 55.1117 147.32 54.7858L147.901 55.8067C147.052 56.2908 146.222 56.6023 145.124 56.6023C142.337 56.6023 141.19 54.8816 141.19 52.442V52.4468Z" fill="#1D1D1B"/>
<path d="M153.733 53.9567H149.898C149.963 55.1262 150.673 55.5528 151.458 55.5528C152.129 55.5528 152.581 55.3659 153.147 55.0543L153.639 55.9266C153.082 56.3005 152.308 56.6121 151.354 56.6121C149.794 56.6121 148.502 55.85 148.502 53.7602C148.502 52.0299 149.471 50.7598 151.304 50.7598C152.943 50.7598 153.783 51.7951 153.783 53.1275C153.783 53.3288 153.768 53.7123 153.733 53.9615V53.9567ZM149.963 53.0221H152.442V52.9837C152.442 52.0874 151.975 51.728 151.319 51.728C150.529 51.728 150.107 52.2264 149.963 53.0221Z" fill="#1D1D1B"/>
<path d="M160.226 52.4708V56.4442H158.83V52.907C158.83 52.0969 158.597 51.8381 157.916 51.8381C157.464 51.8381 156.947 51.9867 156.455 52.2263V56.449H155.06V50.9418L156.455 50.8028V51.3396C157.012 51.0281 157.707 50.7549 158.467 50.7549C159.54 50.7549 160.221 51.2534 160.221 52.4756L160.226 52.4708Z" fill="#1D1D1B"/>
<path d="M165.402 56.2334C165.054 56.4059 164.553 56.6072 163.852 56.6072C162.884 56.6072 162.084 56.0848 162.084 54.8386V51.9867H160.986V50.9275H162.084V49.6813L163.48 49.48V50.9227H165.263L165.119 51.9819H163.48V54.6229C163.48 55.246 163.723 55.5096 164.165 55.5096C164.448 55.5096 164.697 55.4329 165.015 55.3083L165.402 56.2286V56.2334Z" fill="#1D1D1B"/>
<path d="M170.176 50.8651L169.943 52.2359C169.724 52.1497 169.476 52.0873 169.158 52.0873C168.721 52.0873 168.268 52.212 167.802 52.859V56.4442H166.406V50.9274L167.802 50.8028V51.5889C168.229 51.0281 168.795 50.7549 169.426 50.7549C169.699 50.7549 169.918 50.7932 170.176 50.8651Z" fill="#1D1D1B"/>
<path d="M175.75 53.9567H171.915C171.979 55.1262 172.69 55.5528 173.475 55.5528C174.145 55.5528 174.597 55.3659 175.164 55.0543L175.655 55.9266C175.099 56.3005 174.324 56.6121 173.37 56.6121C171.81 56.6121 170.519 55.85 170.519 53.7602C170.519 52.0299 171.487 50.7598 173.321 50.7598C174.96 50.7598 175.799 51.7951 175.799 53.1275C175.799 53.3288 175.784 53.7123 175.75 53.9615V53.9567ZM171.979 53.0221H174.458V52.9837C174.458 52.0874 173.991 51.728 173.335 51.728C172.546 51.728 172.123 52.2264 171.979 53.0221Z" fill="#1D1D1B"/>
<path d="M181.805 49.9689V50.9275H183.445L183.301 51.9868H181.805V56.4443H180.409V51.9868H179.456V50.9275H180.409V49.9929C180.409 48.7083 181.184 47.7881 182.58 47.7881C183.137 47.7881 183.559 47.8744 183.946 48.0229L183.599 49.0822C183.291 48.9576 183.002 48.9097 182.694 48.9097C182.113 48.9097 181.805 49.3075 181.805 49.9689Z" fill="#1D1D1B"/>
<path d="M183.738 53.669C183.738 51.5122 185.158 50.7549 186.773 50.7549C188.71 50.7549 189.614 52.025 189.614 53.6834C189.614 55.8019 188.218 56.612 186.569 56.612C184.647 56.612 183.743 55.2795 183.743 53.6738L183.738 53.669ZM188.154 53.669C188.154 52.5379 187.717 51.7998 186.708 51.7998C185.571 51.7998 185.183 52.5331 185.183 53.669C185.183 54.805 185.62 55.5623 186.669 55.5623C187.806 55.5623 188.154 54.7523 188.154 53.669Z" fill="#1D1D1B"/>
<path d="M194.657 50.8651L194.423 52.2359C194.204 52.1497 193.956 52.0873 193.638 52.0873C193.201 52.0873 192.749 52.212 192.282 52.859V56.4442H190.886V50.9274L192.282 50.8028V51.5889C192.709 51.0281 193.276 50.7549 193.906 50.7549C194.18 50.7549 194.398 50.7932 194.657 50.8651Z" fill="#1D1D1B"/>
<path d="M198.372 52.4468C198.372 49.3073 200.27 48.2097 202.272 48.2097C203.355 48.2097 204.209 48.4733 205.019 48.943L204.423 50.0023C203.931 49.7147 203.251 49.4176 202.346 49.4176C200.618 49.4176 199.922 50.5871 199.922 52.3701C199.922 54.2633 200.787 55.3849 202.426 55.3849C203.33 55.3849 203.936 55.1117 204.502 54.7858L205.084 55.8067C204.234 56.2908 203.405 56.6023 202.307 56.6023C199.52 56.6023 198.372 54.8816 198.372 52.442V52.4468Z" fill="#1D1D1B"/>
<path d="M211.164 50.8027V56.4441H209.952L209.848 56.0223C209.291 56.3483 208.621 56.6071 207.821 56.6071C206.763 56.6071 206.037 56.0223 206.037 54.8768V50.9417L207.433 50.8027V54.479C207.433 55.2123 207.652 55.5143 208.377 55.5143C208.814 55.5143 209.306 55.3274 209.773 55.0925V50.9465L211.169 50.8075L211.164 50.8027Z" fill="#1D1D1B"/>
<path d="M212.868 47.879L214.264 47.74V56.4441H212.868V47.8742V47.879Z" fill="#1D1D1B"/>
<path d="M219.669 56.2334C219.321 56.4059 218.819 56.6072 218.119 56.6072C217.15 56.6072 216.35 56.0848 216.35 54.8386V51.9867H215.252V50.9275H216.35V49.6813L217.746 49.48V50.9227H219.529L219.385 51.9819H217.746V54.6229C217.746 55.246 217.989 55.5096 218.432 55.5096C218.715 55.5096 218.963 55.4329 219.281 55.3083L219.669 56.2286V56.2334Z" fill="#1D1D1B"/>
<path d="M225.734 50.8027V56.4441H224.522L224.418 56.0223C223.861 56.3483 223.191 56.6071 222.391 56.6071C221.333 56.6071 220.607 56.0223 220.607 54.8768V50.9417L222.003 50.8027V54.479C222.003 55.2123 222.222 55.5143 222.947 55.5143C223.384 55.5143 223.876 55.3274 224.343 55.0925V50.9465L225.739 50.8075L225.734 50.8027Z" fill="#1D1D1B"/>
<path d="M231.208 50.8651L230.975 52.2359C230.756 52.1497 230.508 52.0873 230.19 52.0873C229.753 52.0873 229.301 52.212 228.834 52.859V56.4442H227.438V50.9274L228.834 50.8028V51.5889C229.261 51.0281 229.827 50.7549 230.458 50.7549C230.731 50.7549 230.95 50.7932 231.208 50.8651Z" fill="#1D1D1B"/>
<path d="M236.588 52.5858V56.4489H235.376L235.272 55.9888C234.601 56.4633 233.931 56.6119 233.27 56.6119C232.222 56.6119 231.526 56.0128 231.526 55.1069C231.526 53.6977 233.215 53.1034 235.192 53.0507V52.8398C235.192 52.14 234.974 51.8332 234.263 51.8332C233.682 51.8332 233.051 52.0346 232.351 52.4707L231.785 51.6128C232.584 51.0759 233.439 50.7644 234.467 50.7644C235.833 50.7644 236.583 51.2868 236.583 52.5953L236.588 52.5858ZM233.722 55.5622C234.189 55.5622 234.666 55.4376 235.192 55.1404V53.947C233.851 54.0093 232.987 54.3448 232.987 54.9535C232.987 55.3513 233.245 55.5622 233.722 55.5622Z" fill="#1D1D1B"/>
<path d="M238.228 47.879L239.624 47.74V56.4441H238.228V47.8742V47.879Z" fill="#1D1D1B"/>
<path d="M244.268 53.1945V48.3727H245.739V52.9548C245.739 54.4119 246.295 55.3945 247.895 55.3945C249.494 55.3945 249.971 54.388 249.971 53.0507V48.3679H251.441V53.1514C251.441 55.6533 249.817 56.6023 247.8 56.6023C245.297 56.6023 244.263 55.083 244.263 53.1897L244.268 53.1945Z" fill="#1D1D1B"/>
<path d="M258.257 52.4708V56.4442H256.861V52.907C256.861 52.0969 256.628 51.8381 255.947 51.8381C255.495 51.8381 254.978 51.9867 254.487 52.2263V56.449H253.091V50.9418L254.487 50.8028V51.3396C255.043 51.0281 255.738 50.7549 256.498 50.7549C257.572 50.7549 258.252 51.2534 258.252 52.4756L258.257 52.4708Z" fill="#1D1D1B"/>
<path d="M264.983 47.74V56.4441H263.756L263.667 56.0319C263.086 56.3914 262.48 56.6071 261.874 56.6071C260.314 56.6071 259.484 55.5718 259.484 53.8176C259.484 51.7134 260.89 50.7548 262.455 50.7548C262.842 50.7548 263.23 50.8171 263.592 50.9178V47.879L264.988 47.74H264.983ZM262.246 55.5382C262.683 55.5382 263.111 55.4136 263.587 55.1404V51.9147C263.289 51.8141 262.981 51.7661 262.619 51.7661C261.665 51.7661 260.94 52.4132 260.94 53.808C260.94 55.0158 261.417 55.5382 262.241 55.5382H262.246Z" fill="#1D1D1B"/>
<path d="M271.486 53.9567H267.651C267.715 55.1262 268.426 55.5528 269.211 55.5528C269.881 55.5528 270.333 55.3659 270.9 55.0543L271.392 55.9266C270.835 56.3005 270.06 56.6121 269.106 56.6121C267.547 56.6121 266.255 55.85 266.255 53.7602C266.255 52.0299 267.224 50.7598 269.057 50.7598C270.696 50.7598 271.536 51.7951 271.536 53.1275C271.536 53.3288 271.521 53.7123 271.486 53.9615V53.9567ZM267.715 53.0221H270.194V52.9837C270.194 52.0874 269.727 51.728 269.072 51.728C268.282 51.728 267.86 52.2264 267.715 53.0221Z" fill="#1D1D1B"/>
<path d="M276.583 50.8651L276.349 52.2359C276.131 52.1497 275.882 52.0873 275.564 52.0873C275.127 52.0873 274.675 52.212 274.208 52.859V56.4442H272.812V50.9274L274.208 50.8028V51.5889C274.635 51.0281 275.202 50.7549 275.833 50.7549C276.106 50.7549 276.324 50.7932 276.583 50.8651Z" fill="#1D1D1B"/>
<path d="M276.96 55.8594L277.556 54.9487C278.242 55.4232 278.922 55.5862 279.504 55.5862C280.189 55.5862 280.537 55.3609 280.537 54.9631C280.537 54.6371 280.318 54.4023 279.35 54.1531L278.962 54.0524C277.76 53.7409 277.219 53.2663 277.219 52.4084C277.219 51.4258 278.147 50.75 279.454 50.75C280.204 50.75 280.964 50.913 281.739 51.3491L281.198 52.2454C280.472 51.8859 280.05 51.7709 279.479 51.7709C278.907 51.7709 278.639 51.9962 278.639 52.3173C278.639 52.6145 278.833 52.7535 279.543 52.926L279.956 53.0267C281.362 53.3862 281.943 53.9374 281.943 54.8337C281.943 55.8402 281.143 56.6023 279.543 56.6023C278.47 56.6023 277.671 56.3387 276.96 55.8546V55.8594Z" fill="#1D1D1B"/>
<path d="M286.717 56.2334C286.369 56.4059 285.867 56.6072 285.167 56.6072C284.198 56.6072 283.398 56.0848 283.398 54.8386V51.9867H282.3V50.9275H283.398V49.6813L284.794 49.48V50.9227H286.578L286.433 51.9819H284.794V54.6229C284.794 55.246 285.038 55.5096 285.48 55.5096C285.763 55.5096 286.011 55.4329 286.329 55.3083L286.717 56.2286V56.2334Z" fill="#1D1D1B"/>
<path d="M292.28 52.5858V56.4489H291.068L290.964 55.9888C290.293 56.4633 289.623 56.6119 288.962 56.6119C287.914 56.6119 287.218 56.0128 287.218 55.1069C287.218 53.6977 288.907 53.1034 290.884 53.0507V52.8398C290.884 52.14 290.666 51.8332 289.956 51.8332C289.374 51.8332 288.743 52.0346 288.043 52.4707L287.477 51.6128C288.276 51.0759 289.131 50.7644 290.159 50.7644C291.525 50.7644 292.275 51.2868 292.275 52.5953L292.28 52.5858ZM289.414 55.5622C289.881 55.5622 290.358 55.4376 290.884 55.1404V53.947C289.543 54.0093 288.679 54.3448 288.679 54.9535C288.679 55.3513 288.937 55.5622 289.414 55.5622Z" fill="#1D1D1B"/>
<path d="M299.081 52.4708V56.4442H297.685V52.907C297.685 52.0969 297.452 51.8381 296.771 51.8381C296.319 51.8381 295.802 51.9867 295.311 52.2263V56.449H293.915V50.9418L295.311 50.8028V51.3396C295.867 51.0281 296.562 50.7549 297.322 50.7549C298.395 50.7549 299.076 51.2534 299.076 52.4756L299.081 52.4708Z" fill="#1D1D1B"/>
<path d="M305.802 47.74V56.4441H304.575L304.486 56.0319C303.905 56.3914 303.299 56.6071 302.693 56.6071C301.133 56.6071 300.303 55.5718 300.303 53.8176C300.303 51.7134 301.709 50.7548 303.274 50.7548C303.661 50.7548 304.049 50.8171 304.411 50.9178V47.879L305.807 47.74H305.802ZM303.065 55.5382C303.502 55.5382 303.929 55.4136 304.406 55.1404V51.9147C304.108 51.8141 303.8 51.7661 303.438 51.7661C302.484 51.7661 301.759 52.4132 301.759 53.808C301.759 55.0158 302.236 55.5382 303.06 55.5382H303.065Z" fill="#1D1D1B"/>
<path d="M307.233 49.0486C307.233 48.5645 307.66 48.1523 308.162 48.1523C308.693 48.1523 309.116 48.5645 309.116 49.0486C309.116 49.5327 308.688 49.9354 308.162 49.9354C307.635 49.9354 307.233 49.5375 307.233 49.0486ZM307.491 50.9419L308.887 50.8029V56.4443H307.491V50.9371V50.9419Z" fill="#1D1D1B"/>
<path d="M315.742 52.4708V56.4442H314.347V52.907C314.347 52.0969 314.113 51.8381 313.433 51.8381C312.981 51.8381 312.464 51.9867 311.972 52.2263V56.449H310.576V50.9418L311.972 50.8028V51.3396C312.528 51.0281 313.224 50.7549 313.984 50.7549C315.057 50.7549 315.738 51.2534 315.738 52.4756L315.742 52.4708Z" fill="#1D1D1B"/>
<path d="M322.98 56.9715C322.98 58.1553 321.738 58.927 319.741 58.927C318.142 58.927 316.875 58.4669 316.875 57.3597C316.875 56.6887 317.287 56.3004 317.794 56.0129C317.561 55.8403 317.422 55.615 317.422 55.3418C317.422 55.0159 317.6 54.7331 318.067 54.4072C317.397 54.0573 317.084 53.4582 317.084 52.7776C317.084 51.3205 318.4 50.7597 319.806 50.7597C320.089 50.7597 320.338 50.7837 320.556 50.822L322.533 50.0264L322.97 51.0952L321.704 51.4068C322.171 51.7566 322.399 52.2407 322.399 52.8159C322.399 54.249 321.083 54.7475 319.702 54.7475C319.419 54.7475 319.16 54.7235 318.917 54.6852C318.827 54.7954 318.803 54.9105 318.803 54.9967C318.803 55.222 319.011 55.3227 319.796 55.385L320.685 55.4617C322.131 55.5863 322.985 55.9362 322.985 56.981L322.98 56.9715ZM321.485 57.1584C321.485 56.7606 321.113 56.5976 320.104 56.5113L319.265 56.449C319.021 56.4251 318.788 56.3867 318.579 56.3388C318.346 56.588 318.192 56.8852 318.192 57.1584C318.192 57.6569 318.594 57.9444 319.766 57.9444C320.71 57.9444 321.485 57.7192 321.485 57.1584ZM318.49 52.7632C318.49 53.4007 318.892 53.7697 319.781 53.7697C320.725 53.7697 321.008 53.3479 321.008 52.7871C321.008 52.1257 320.571 51.7423 319.741 51.7423C318.862 51.7423 318.49 52.1545 318.49 52.7632Z" fill="#1D1D1B"/>
<path d="M110.823 70.8712C110.823 70.4111 110.907 69.927 111.012 69.5819L111.965 69.2607L112.075 69.3183C111.99 69.7544 111.955 70.0564 111.955 70.344C111.955 71.3793 112.482 72.0695 114.469 72.0695C115.994 72.0695 117.281 71.5518 117.698 71.0821C117.792 70.761 117.569 70.6124 116.804 70.3583C115.9 70.0612 115.264 69.8647 115.264 68.9444C115.264 67.8612 116.243 66.2891 117.778 66.2891C118.279 66.2891 118.731 66.4281 119.039 66.5862L118.811 67.6455L118.761 67.679C118.463 67.54 118.046 67.425 117.688 67.425C116.829 67.425 116.138 68.1631 116.138 68.6424C116.138 68.9396 116.605 69.093 117.484 69.3806C118.652 69.7832 118.855 70.0708 118.855 70.4973C118.855 71.9928 116.709 73.2102 114.206 73.2102C111.856 73.2102 110.808 72.2085 110.808 70.876L110.823 70.8712ZM112.482 75.0363L113.148 74.0682L114.221 74.7823L113.565 75.7601L112.482 75.0363ZM114.201 75.0363L114.866 74.0682L115.939 74.7823L115.274 75.7601L114.201 75.0363Z" fill="#1D1D1B"/>
<path d="M118.607 72.6301L118.677 72.5246C120.798 72.1556 122.005 71.1922 122.005 70.6362C121.97 70.2096 121.573 69.3469 121.146 68.5992L122.005 67.6885H122.109C122.636 68.6087 122.944 69.668 122.944 70.3582C122.944 70.7608 122.84 71.197 122.611 71.5996C122.124 72.4623 120.833 73.1861 119.238 73.4641L118.607 72.6253V72.6301Z" fill="#1D1D1B"/>
<path d="M124.375 69.3086V63.7726L125.462 63.4946L125.557 63.5522V69.2031C125.557 70.0419 125.914 70.2624 126.858 70.2624C127.226 70.2624 127.335 70.411 127.335 70.641C127.335 71.0197 127.181 71.3983 126.585 71.3983C125.239 71.3983 124.379 70.8711 124.379 69.3038L124.375 69.3086Z" fill="#1D1D1B"/>
<path d="M137.494 70.6411C137.494 70.9958 137.35 71.3984 136.744 71.3984C136.232 71.3984 135.552 71.2594 135.065 70.9143C134.459 71.3265 133.609 71.3984 132.025 71.3984H130.698C129.481 71.3984 128.806 71.3505 128.041 71.0533C127.673 71.2834 127.206 71.3984 126.585 71.3984L126.848 70.2576C127.171 70.2576 127.554 70.2241 127.698 70.1426C127.842 69.9126 127.971 69.486 128.15 68.9012L129.377 68.7047L129.427 68.7526C129.238 69.3038 129.044 69.7544 128.84 70.1234C129.114 70.2049 129.437 70.2385 129.844 70.2481C131.801 68.4171 133.073 67.3483 134.146 67.3483C135.219 67.3483 135.934 68.3356 135.934 69.2703C135.934 69.5579 135.875 69.8119 135.765 70.0516C136.063 70.1666 136.471 70.2576 137.017 70.2576C137.4 70.2576 137.494 70.4206 137.494 70.6363V70.6411ZM134.752 70.0563C134.846 69.9173 134.921 69.7017 134.921 69.4572C134.921 69.021 134.538 68.4459 134.002 68.4459C133.331 68.4459 132.333 69.1936 131.15 70.2624H132.238C133.823 70.2624 134.384 70.2289 134.752 70.0563ZM133.977 66.1452L132.869 65.3975L133.56 64.4102L134.667 65.1483L133.977 66.15V66.1452Z" fill="#1D1D1B"/>
<path d="M144.846 70.6409C144.846 70.9956 144.727 71.3982 144.121 71.3982C142.342 71.3982 141.652 70.9716 141.225 70.2143C140.942 70.3054 140.629 70.4204 140.286 70.5594C138.711 71.1921 137.827 71.3982 136.744 71.3982L137.007 70.2575C137.961 70.2575 138.642 70.1424 139.953 69.7063C140.549 69.5098 141.001 69.3851 141.418 69.2941C141.25 69.2126 141.036 69.1215 140.788 68.9969C139.834 68.5368 139.322 68.3738 138.796 68.3738C138.319 68.3738 137.901 68.4793 137.534 68.5943L137.484 68.5464L137.911 67.5111C138.185 67.3865 138.592 67.281 138.974 67.281C139.451 67.281 139.988 67.4631 140.966 67.9376C142.169 68.5128 142.839 68.7093 143.505 68.7429L143.276 69.7686C142.968 69.7926 142.655 69.8261 142.323 69.9076C142.69 70.1952 143.276 70.2623 144.384 70.2623C144.767 70.2623 144.851 70.4252 144.851 70.6409H144.846Z" fill="#1D1D1B"/>
<path d="M144.369 70.2624C144.737 70.2624 145.144 70.2384 145.417 70.0803C145.467 69.8837 145.502 69.6105 145.502 69.1935V63.7726L146.575 63.4946L146.679 63.5522V69.0977C146.679 70.9382 145.691 71.3983 144.091 71.3983L144.364 70.2576L144.369 70.2624Z" fill="#1D1D1B"/>
<path d="M148.184 71.4223V63.7726L149.282 63.4946L149.367 63.5522L149.357 71.2498L148.269 71.4702L148.184 71.4223Z" fill="#1D1D1B"/>
<path d="M161.716 70.6411C161.716 70.9958 161.572 71.3984 160.966 71.3984C160.514 71.3984 160.132 71.2834 159.833 71.0437C159.451 72.7788 158.174 73.5409 156.257 73.5409C154.339 73.5409 153.405 72.5727 153.405 71.1588C153.405 70.6747 153.49 70.181 153.609 69.8263L154.503 69.5052L154.612 69.5531C154.543 69.9222 154.503 70.3008 154.503 70.622C154.503 71.7387 155.005 72.405 156.495 72.405C157.424 72.405 158.13 72.1845 158.582 71.6333C158.701 71.2786 158.795 70.7705 158.795 69.9653V63.7775L159.868 63.4995L159.963 63.557V69.1121C159.963 70.157 160.395 70.2625 161.224 70.2625C161.617 70.2625 161.711 70.4254 161.711 70.6411H161.716Z" fill="#1D1D1B"/>
<path d="M170.315 69.275C170.315 69.9556 169.957 70.5164 169.565 70.8376C168.944 71.3217 168.085 71.4031 166.406 71.4031H165.079C163.862 71.4031 163.187 71.3552 162.422 71.058C162.054 71.2881 161.587 71.4031 160.966 71.4031L161.229 70.2624C161.552 70.2624 161.935 70.2288 162.079 70.1474C162.223 69.9173 162.352 69.4907 162.531 68.906L163.758 68.7095L163.808 68.7574C163.619 69.3086 163.425 69.7591 163.221 70.1282C163.495 70.2097 163.817 70.2432 164.225 70.2528C166.182 68.4219 167.454 67.353 168.527 67.353C169.6 67.353 170.315 68.3404 170.315 69.275ZM169.302 69.4572C169.302 69.021 168.919 68.4458 168.383 68.4458C167.712 68.4458 166.714 69.1936 165.531 70.2624H166.619C168.204 70.2624 168.765 70.2288 169.133 70.0563C169.227 69.9173 169.302 69.7016 169.302 69.4572Z" fill="#1D1D1B"/>
<path d="M171.661 71.4223V63.7726L172.759 63.4946L172.844 63.5522L172.829 71.2498L171.746 71.4702L171.661 71.4223Z" fill="#1D1D1B"/>
<path d="M179.47 70.6409C179.47 70.9956 179.316 71.3982 178.705 71.3982H177.886C177.454 72.515 176.301 73.4017 174.309 73.4353L173.713 72.5821L173.783 72.4767C175.263 72.4431 176.311 72.0741 176.813 71.3935H176.599C175.049 71.3935 174.344 70.7943 174.344 69.8309C174.344 68.7477 175.154 67.5303 176.182 67.5303C177.315 67.5303 178.065 68.786 178.089 70.2575H178.974C179.381 70.2575 179.475 70.4205 179.475 70.6362L179.47 70.6409ZM176.644 70.2623H177.146C177.131 69.3756 176.619 68.6279 176.132 68.6279C175.705 68.6279 175.263 69.088 175.263 69.6728C175.263 70.0658 175.645 70.2575 176.644 70.2575V70.2623Z" fill="#1D1D1B"/>
<path d="M183.608 70.641C183.608 70.9957 183.479 71.3983 182.868 71.3983C182.069 71.3983 181.308 71.2497 180.817 70.8567C180.409 71.2114 179.873 71.3983 179.123 71.3983H178.715L178.989 70.2575H179.311C179.644 70.2575 180.002 70.2 180.181 70.0754C180.325 69.8118 180.489 69.2702 180.683 68.3835L181.875 68.1055L181.994 68.187C181.825 68.9011 181.661 69.5002 181.433 69.97C181.731 70.1185 182.232 70.2575 183.127 70.2575C183.509 70.2575 183.604 70.4205 183.604 70.6362L183.608 70.641ZM180.663 66.8785L179.59 66.1547L180.245 65.1865L181.318 65.9007L180.663 66.8785ZM181.269 66.1547L181.934 65.1865L183.007 65.9007L182.342 66.8785L181.269 66.1547Z" fill="#1D1D1B"/>
<path d="M187.18 70.6409C187.18 70.9956 187.036 71.3982 186.43 71.3982C185.963 71.3982 185.298 71.2832 184.93 70.732C184.513 71.2401 183.882 71.3982 182.853 71.3982L183.127 70.2575C183.494 70.2575 183.902 70.2335 184.175 70.0754C184.225 69.8789 184.259 69.6057 184.259 69.1887V63.7677L185.332 63.4897L185.442 63.5473V69.1024C185.442 70.1473 185.869 70.2527 186.703 70.2527C187.086 70.2527 187.18 70.4157 187.18 70.6314V70.6409Z" fill="#1D1D1B"/>
<path d="M186.703 70.2624C187.071 70.2624 187.478 70.2384 187.752 70.0803C187.801 69.8837 187.836 69.6105 187.836 69.1935V63.7726L188.909 63.4946L189.018 63.5522V69.0977C189.018 70.9382 188.03 71.3983 186.43 71.3983L186.703 70.2576V70.2624Z" fill="#1D1D1B"/>
<path d="M197.722 70.205C197.722 71.0917 197.493 71.4703 196.947 71.4703C196.435 71.4703 195.898 71.3793 195.302 71.3793C194.935 71.3793 194.493 71.4607 194.254 71.5758C194.026 72.3474 194.458 74.0586 194.622 75.1082L193.598 75.5684L193.504 75.5013C193.315 74.2934 193.052 73.0856 193.052 72.405C193.052 71.4176 193.743 70.2673 195.446 70.2673C195.829 70.2673 196.281 70.3152 196.698 70.3823C196.663 69.486 196.077 68.6328 195.412 68.6328C195.029 68.6328 194.647 68.9684 194.483 69.7161L193.921 69.7832L193.802 69.7257C193.911 68.2973 194.806 67.54 195.66 67.54C196.877 67.54 197.722 68.954 197.722 70.2098V70.205Z" fill="#1D1D1B"/>
<path d="M204.209 70.6409C204.209 70.9956 204.055 71.3982 203.444 71.3982H202.625C202.192 72.515 201.04 73.4017 199.048 73.4353L198.452 72.5821L198.521 72.4767C200.002 72.4431 201.05 72.0741 201.552 71.3935H201.338C199.788 71.3935 199.083 70.7943 199.083 69.8309C199.083 68.7477 199.892 67.5303 200.921 67.5303C202.053 67.5303 202.803 68.786 202.828 70.2575H203.712C204.12 70.2575 204.214 70.4205 204.214 70.6362L204.209 70.6409ZM201.383 70.2623H201.884C201.87 69.3756 201.358 68.6279 200.871 68.6279C200.444 68.6279 200.002 69.088 200.002 69.6728C200.002 70.0658 200.384 70.2575 201.383 70.2575V70.2623Z" fill="#1D1D1B"/>
<path d="M208.342 70.641C208.342 70.9957 208.213 71.3983 207.602 71.3983C206.802 71.3983 206.042 71.2497 205.551 70.8567C205.143 71.2114 204.607 71.3983 203.857 71.3983H203.449L203.722 70.2575H204.045C204.378 70.2575 204.736 70.2 204.915 70.0754C205.059 69.8118 205.223 69.2702 205.416 68.3835L206.609 68.1055L206.728 68.187C206.559 68.9011 206.395 69.5002 206.167 69.97C206.465 70.1185 206.966 70.2575 207.86 70.2575C208.243 70.2575 208.337 70.4205 208.337 70.6362L208.342 70.641ZM205.397 66.8785L204.324 66.1547L204.979 65.1865L206.052 65.9007L205.397 66.8785ZM206.003 66.1547L206.668 65.1865L207.741 65.9007L207.076 66.8785L206.003 66.1547Z" fill="#1D1D1B"/>
<path d="M214.259 70.641C214.259 70.9957 214.115 71.3983 213.509 71.3983C212.853 71.3983 212.247 71.0772 211.745 70.5021C211.328 71.2498 210.29 71.3983 208.516 71.3983H207.597L207.86 70.2576H209.112C210.508 70.2576 210.911 70.0755 211.079 69.855C210.672 69.2463 209.341 68.1295 208.397 67.4153L208.337 67.3482L208.635 65.9774L212.639 63.8733L212.734 63.9308L212.341 65.3208L209.515 66.7827C210.637 67.7365 211.253 68.3452 211.899 69.0018C212.58 69.7256 213.081 70.2576 213.782 70.2576C214.164 70.2576 214.259 70.4206 214.259 70.6363V70.641Z" fill="#1D1D1B"/>
<path d="M219.003 70.1233C219.003 70.9621 218.576 71.5372 217.716 71.5372C217.11 71.5372 216.211 71.2976 215.342 70.708C214.89 71.2497 214.318 71.3982 213.504 71.3982L213.767 70.2575C214.279 70.2575 214.482 70.085 214.815 69.4858C215.232 68.7717 215.853 67.5303 216.936 67.5303C218.019 67.5303 218.998 68.7956 218.998 70.1185L219.003 70.1233ZM216.916 68.6279C216.534 68.6279 216.276 69.112 215.878 69.8261C216.484 70.2048 217.07 70.4109 217.438 70.4109C217.592 70.4109 217.786 70.3869 217.925 70.2863C217.96 69.7782 217.458 68.6279 216.912 68.6279H216.916Z" fill="#1D1D1B"/>
<path d="M222.902 71.1588C222.902 70.6986 222.997 70.1139 223.106 69.8263L224 69.5052L224.11 69.5531C224.04 69.9222 224 70.3008 224 70.622C224 71.7387 224.502 72.405 225.992 72.405C226.921 72.405 227.627 72.1845 228.079 71.6333C228.198 71.2786 228.292 70.7705 228.292 69.9653V63.7775L229.375 63.4995L229.47 63.557L229.455 69.8503C229.455 72.4385 228.059 73.5409 225.749 73.5409C223.901 73.5409 222.898 72.5727 222.898 71.1588H222.902Z" fill="#1D1D1B"/>
<path d="M231.129 62.7038C230.866 62.7038 230.568 62.7853 230.21 63.0009L229.842 62.4258C230.284 62.0471 230.667 61.9177 231.025 61.9177C231.67 61.9177 231.944 62.2149 232.609 62.2149C232.778 62.2149 232.957 62.1909 233.131 62.1238L233.384 62.7901C233.086 62.9386 232.813 62.9866 232.56 62.9866C231.904 62.9866 231.735 62.699 231.129 62.699V62.7038ZM230.985 71.4223V63.7726L232.083 63.4946L232.167 63.5521L232.157 71.2498L231.069 71.4702L230.985 71.4223Z" fill="#1D1D1B"/>
<path d="M242.097 70.6409C242.097 70.9956 241.943 71.3982 241.322 71.3982C240.667 71.3982 240.249 71.2736 239.917 70.8231C239.43 71.2497 238.57 71.4797 237.463 71.4797C237.199 71.4797 236.519 71.4462 236.092 71.3407L236.26 70.2575L236.32 70.2096C236.713 70.2911 237.309 70.315 237.582 70.315C238.238 70.315 239.013 70.2096 239.44 69.9795L239.425 69.9699C239.196 69.5577 238.411 68.0479 237.91 67.1996L238.779 66.2793H238.883C239.206 67.003 240.041 68.8196 240.21 69.1647C240.662 70.0945 240.9 70.2575 241.591 70.2575C241.973 70.2575 242.092 70.4205 242.092 70.6362L242.097 70.6409Z" fill="#1D1D1B"/>
<path d="M250.324 69.5051C250.324 70.852 249.345 71.4032 247.964 71.4032C247.393 71.4032 246.916 71.2785 246.524 71.106C246.25 71.3025 245.893 71.4032 245.416 71.4032C244.616 71.4032 243.95 71.1491 243.568 70.8951C243.101 71.2498 242.445 71.4032 241.352 71.4032L241.616 70.2624C242.381 70.2624 242.808 70.2049 243.046 70.0803C243.175 69.8742 243.309 69.3901 243.454 68.8245L244.73 68.6424L244.78 68.6999C244.591 69.2271 244.432 69.6777 244.243 70.0324C244.601 70.157 245.128 70.2624 245.555 70.2624C245.759 70.2624 245.962 70.2289 246.081 70.1474C246.201 69.9844 246.37 69.4332 246.548 68.8245L247.741 68.6424L247.79 68.6903C247.602 69.2655 247.433 69.7496 247.254 70.1522C247.517 70.2193 247.815 70.2672 248.113 70.2672C248.53 70.2672 248.958 70.2337 249.196 70.1282C249.365 69.6106 249.017 68.7814 248.66 68.0337L249.673 67.2859L249.743 67.2955C250.09 68.1103 250.339 68.9156 250.339 69.5051H250.324ZM246.126 66.8833L245.043 66.1596L245.709 65.1914L246.782 65.9056L246.126 66.8833ZM246.792 65.4358L245.709 64.6977L246.389 63.7439L247.462 64.4437L246.792 65.431V65.4358ZM247.413 65.1962L248.486 65.9103L247.805 66.8881L246.732 66.1644L247.413 65.1962Z" fill="#1D1D1B"/>
<path d="M251.754 71.4223V63.7726L252.852 63.4946L252.937 63.5522L252.922 71.2498L251.839 71.4702L251.754 71.4223Z" fill="#1D1D1B"/>
<path d="M252.708 72.6301L252.778 72.5246C254.899 72.1556 256.106 71.1922 256.106 70.6362C256.071 70.2096 255.679 69.3469 255.247 68.5992L256.106 67.6885H256.215C256.737 68.6087 257.05 69.668 257.05 70.3582C257.05 70.7608 256.941 71.197 256.717 71.5996C256.23 72.4623 254.939 73.1861 253.344 73.4641L252.713 72.6253L252.708 72.6301Z" fill="#1D1D1B"/>
<path d="M269.027 70.6409C269.027 70.9956 268.883 71.3982 268.262 71.3982C267.964 71.3982 267.641 71.3072 267.378 71.1442C267.055 72.7786 265.659 73.5359 263.846 73.5359C262.032 73.5359 260.994 72.5581 260.994 71.1538C260.994 70.6361 261.099 70.1185 261.198 69.8213L262.092 69.5002L262.201 69.5481C262.132 69.9603 262.092 70.3198 262.092 70.617C262.092 71.6762 262.534 72.4 264.084 72.4C265.301 72.4 265.922 71.9734 266.255 71.5612C266.528 70.7464 266.161 69.8932 265.669 68.8579L266.707 68.1438H266.777C266.906 68.4793 267.159 69.318 267.348 69.6727C267.576 70.0849 267.909 70.2575 268.456 70.2575C268.873 70.2575 269.017 70.4204 269.017 70.6361L269.027 70.6409ZM264.188 67.7651L263.081 67.0174L263.771 66.03L264.879 66.7682L264.188 67.7699V67.7651Z" fill="#1D1D1B"/>
<path d="M268.55 70.2624H268.659C269.186 70.2624 269.663 70.2385 269.876 70.1474C270.045 69.6298 269.663 68.8341 269.27 68.0289L270.249 67.2908H270.368C270.775 68.1056 270.999 68.9827 270.999 69.486C270.999 70.0276 270.785 70.5788 270.403 70.9478C270.045 71.2834 269.558 71.3984 268.411 71.3984H268.282L268.555 70.2576L268.55 70.2624ZM269.037 73.2437L269.727 72.2659L270.835 72.9897L270.145 73.9914L269.037 73.2437Z" fill="#1D1D1B"/>
<path d="M280.845 70.6409C280.845 70.9956 280.691 71.3982 280.07 71.3982C279.414 71.3982 278.997 71.2736 278.664 70.8231C278.177 71.2497 277.318 71.4797 276.205 71.4797C275.942 71.4797 275.261 71.4462 274.834 71.3407L275.003 70.2575L275.063 70.2096C275.455 70.2911 276.051 70.315 276.324 70.315C276.98 70.315 277.755 70.2096 278.182 69.9795L278.172 69.9699C277.944 69.5577 277.159 68.0479 276.657 67.1996L277.526 66.2793H277.636C277.959 67.003 278.793 68.8196 278.957 69.1647C279.409 70.0945 279.648 70.2575 280.343 70.2575C280.726 70.2575 280.845 70.4205 280.845 70.6362V70.6409Z" fill="#1D1D1B"/>
<path d="M287.184 70.6411C287.184 71.0916 286.92 71.3984 286.409 71.3984C285.897 71.3984 285.524 71.2834 285.206 71.0054C285.003 71.3505 284.705 71.5326 284.228 71.5326C283.622 71.5326 282.748 71.2354 281.973 70.7034C281.496 71.2882 281.019 71.3936 280.09 71.3936L280.378 70.2529C280.88 70.2529 281.044 70.1378 281.381 69.6202C281.928 68.7479 282.504 67.5256 283.552 67.5256C284.446 67.5256 284.864 68.3309 285.341 69.2751C285.758 70.0899 285.972 70.2529 286.687 70.2529C287.045 70.2529 287.189 70.4015 287.189 70.6315L287.184 70.6411ZM284.62 70.2049L284.551 70.0564C284.109 69.045 283.801 68.628 283.513 68.628C283.155 68.628 282.807 69.2032 282.474 69.8455C283.021 70.2001 283.632 70.4446 284.024 70.4446C284.312 70.4446 284.491 70.3535 284.62 70.2049Z" fill="#1D1D1B"/>
<path d="M294.541 70.6409C294.541 70.9956 294.421 71.3982 293.815 71.3982C292.037 71.3982 291.347 70.9716 290.919 70.2143C290.636 70.3054 290.323 70.4204 289.98 70.5594C288.406 71.1921 287.521 71.3982 286.438 71.3982L286.702 70.2575C287.656 70.2575 288.336 70.1424 289.648 69.7063C290.244 69.5098 290.696 69.3851 291.113 69.2941C290.944 69.2126 290.731 69.1215 290.482 68.9969C289.528 68.5368 289.017 68.3738 288.49 68.3738C288.013 68.3738 287.596 68.4793 287.228 68.5943L287.179 68.5464L287.606 67.5111C287.879 67.3865 288.286 67.281 288.669 67.281C289.146 67.281 289.682 67.4631 290.661 67.9376C291.863 68.5128 292.534 68.7093 293.199 68.7429L292.971 69.7686C292.663 69.7926 292.35 69.8261 292.017 69.9076C292.385 70.1952 292.971 70.2623 294.079 70.2623C294.461 70.2623 294.546 70.4252 294.546 70.6409H294.541Z" fill="#1D1D1B"/>
<path d="M299.285 70.1233C299.285 70.9621 298.853 71.5372 297.998 71.5372C297.392 71.5372 296.498 71.2976 295.624 70.708C295.172 71.2497 294.6 71.3982 293.786 71.3982L294.049 70.2575C294.561 70.2575 294.764 70.085 295.097 69.4858C295.514 68.7717 296.135 67.5303 297.218 67.5303C298.301 67.5303 299.28 68.7956 299.28 70.1185L299.285 70.1233ZM297.198 68.6279C296.816 68.6279 296.553 69.112 296.16 69.8261C296.766 70.2048 297.352 70.4109 297.72 70.4109C297.874 70.4109 298.068 70.3869 298.207 70.2863C298.242 69.7782 297.74 68.6279 297.193 68.6279H297.198Z" fill="#1D1D1B"/>
<path d="M311.614 70.641C311.614 70.9956 311.47 71.3983 310.864 71.3983C309.468 71.3983 308.49 70.9621 307.933 69.4187C305.728 69.946 304.282 71.3647 304.282 72.8601C304.282 74.2741 305.609 75.0458 307.695 75.0458C308.445 75.0458 309.295 74.9211 310.079 74.6767L310.149 74.7438L309.816 75.688C309.304 75.9852 308.326 76.1817 307.372 76.1817C304.903 76.1817 303.189 75.041 303.189 73.1909C303.189 71.2353 304.978 69.6009 306.92 68.7381L306.801 68.7046C305.907 68.4506 305.395 68.3691 304.918 68.3691C304.357 68.3691 303.751 68.4841 303.318 68.6231L303.269 68.5656L303.696 67.5543C304.029 67.3817 304.565 67.2763 305.007 67.2763C305.425 67.2763 305.842 67.3434 306.617 67.5638C307.894 67.9329 308.823 68.0575 309.955 68.0575L309.667 69.1839C309.419 69.1935 309.18 69.2078 308.942 69.2318C309.309 69.9795 309.906 70.2575 311.138 70.2575C311.52 70.2575 311.614 70.4205 311.614 70.6362V70.641ZM306.776 66.0732L305.668 65.3255L306.359 64.3381L307.466 65.0763L306.776 66.078V66.0732Z" fill="#1D1D1B"/>
<path d="M315.752 70.641C315.752 70.9957 315.623 71.3983 315.012 71.3983C314.213 71.3983 313.452 71.2497 312.961 70.8567C312.553 71.2113 312.017 71.3983 311.267 71.3983H310.859L311.133 70.2575H311.455C311.788 70.2575 312.146 70.2 312.325 70.0754C312.469 69.8118 312.633 69.2702 312.827 68.3835L314.019 68.1055L314.138 68.1869C313.969 68.9011 313.805 69.5002 313.577 69.97C313.875 70.1185 314.376 70.2575 315.271 70.2575C315.653 70.2575 315.748 70.4205 315.748 70.6362L315.752 70.641ZM312.986 72.9752L312.33 73.953L311.247 73.2292L311.913 72.261L312.986 72.9752ZM313.626 72.261L314.699 72.9752L314.034 73.953L312.961 73.2292L313.626 72.261Z" fill="#1D1D1B"/>
<path d="M325.539 70.641C325.539 70.9957 325.395 71.3983 324.789 71.3983C324.277 71.3983 323.581 71.2593 323.095 70.9046C322.712 71.2497 322.21 71.3983 321.614 71.3983C321.018 71.3983 320.566 71.2737 320.174 71.1011C319.9 71.2976 319.543 71.3983 319.066 71.3983C318.266 71.3983 317.6 71.1442 317.218 70.8902C316.751 71.2449 316.095 71.3983 315.002 71.3983L315.266 70.2575C316.031 70.2575 316.458 70.2 316.696 70.0754C316.825 69.8693 316.96 69.3852 317.104 68.8196L318.38 68.6375L318.43 68.695C318.241 69.2222 318.082 69.6728 317.893 70.0275C318.251 70.1521 318.778 70.2575 319.205 70.2575C319.409 70.2575 319.612 70.224 319.732 70.1425C319.851 69.9795 320.02 69.4283 320.198 68.8196L321.391 68.6375L321.44 68.6854C321.252 69.2606 321.083 69.7447 320.904 70.1473C321.167 70.2144 321.465 70.2623 321.763 70.2623C322.036 70.2623 322.325 70.2144 322.503 70.1137C322.573 69.9652 322.648 69.6872 322.648 69.2606C322.648 69.0305 322.623 68.7333 322.588 68.4314L323.721 68.0288L323.815 68.0623C323.84 68.2828 323.85 68.4889 323.85 68.6854C323.85 69.2031 323.79 69.6296 323.681 69.9843C323.979 70.1233 324.421 70.2623 325.077 70.2623C325.459 70.2623 325.554 70.4253 325.554 70.641H325.539ZM319.781 66.8784L318.698 66.1547L319.364 65.1865L320.437 65.9007L319.781 66.8784ZM320.447 65.431L319.364 64.6928L320.044 63.739L321.117 64.4388L320.447 65.4262V65.431ZM321.068 65.1913L322.141 65.9055L321.46 66.8832L320.387 66.1595L321.068 65.1913Z" fill="#1D1D1B"/>
<path d="M325.062 70.2624C325.429 70.2624 325.837 70.2384 326.11 70.0803C326.16 69.8837 326.194 69.6105 326.194 69.1935V63.7726L327.267 63.4946L327.372 63.5522V69.0977C327.372 70.9382 326.383 71.3983 324.784 71.3983L325.057 70.2576L325.062 70.2624Z" fill="#1D1D1B"/>
<path d="M328.877 71.4223V63.7726L329.975 63.4946L330.059 63.5522L330.049 71.2498L328.961 71.4702L328.877 71.4223Z" fill="#1D1D1B"/>
<path d="M338.678 70.6411C338.678 70.9958 338.534 71.3984 337.928 71.3984C337.476 71.3984 337.163 71.293 336.939 71.1444C336.532 72.2372 335.22 73.1575 333.363 73.469L332.732 72.6302L332.801 72.5248C334.912 72.1461 335.866 71.3074 336.164 70.4877C335.951 69.9461 335.603 69.2559 335.26 68.5993L336.12 67.6886H336.249C336.497 68.3788 336.751 68.9875 336.87 69.2991C337.193 70.1139 337.396 70.2529 338.196 70.2529C338.579 70.2529 338.683 70.4159 338.683 70.6315L338.678 70.6411ZM336.149 66.4856L335.042 65.7379L335.732 64.7505L336.84 65.4886L336.149 66.4904V66.4856Z" fill="#1D1D1B"/>
<path d="M342.672 65.3255L339.821 66.773C341.991 68.1534 342.349 68.925 342.349 69.6009C342.349 70.6362 341.5 71.3935 339.08 71.3935H337.923L338.186 70.2527H339.036C340.158 70.2527 341.112 70.0562 341.41 69.8741C341.41 69.1264 340.109 68.2636 338.728 67.4105L338.668 67.3434L338.966 65.9725L342.97 63.8684L343.064 63.9259L342.672 65.3159V65.3255Z" fill="#1D1D1B"/>
<path d="M348.082 70.641C348.082 70.9957 347.938 71.3983 347.332 71.3983C346.88 71.3983 346.567 71.2928 346.343 71.1443C345.936 72.2371 344.624 73.1573 342.766 73.4689L342.135 72.6301L342.205 72.5246C344.316 72.146 345.27 71.3072 345.568 70.4876C345.355 69.946 345.007 69.2558 344.664 68.5992L345.523 67.6885H345.653C345.901 68.3787 346.154 68.9874 346.274 69.2989C346.596 70.1137 346.8 70.2527 347.6 70.2527C347.982 70.2527 348.087 70.4157 348.087 70.6314L348.082 70.641Z" fill="#1D1D1B"/>
<path d="M352.826 70.1233C352.826 70.9621 352.399 71.5372 351.539 71.5372C350.933 71.5372 350.034 71.2976 349.165 70.708C348.713 71.2497 348.141 71.3982 347.327 71.3982L347.59 70.2575C348.102 70.2575 348.305 70.085 348.638 69.4858C349.055 68.7717 349.676 67.5303 350.759 67.5303C351.842 67.5303 352.821 68.7956 352.821 70.1185L352.826 70.1233ZM350.739 68.6279C350.357 68.6279 350.099 69.112 349.701 69.8261C350.307 70.2048 350.893 70.4109 351.261 70.4109C351.415 70.4109 351.609 70.3869 351.748 70.2863C351.783 69.7782 351.281 68.6279 350.734 68.6279H350.739Z" fill="#1D1D1B"/>
</svg>
