<svg width="29" height="28" viewBox="0 0 29 28" fill="none" xmlns="http://www.w3.org/2000/svg">
<path fill-rule="evenodd" clip-rule="evenodd" d="M16.1996 9.53263C15.7166 9.53263 15.3246 9.14063 15.3246 8.65763V5.83313C15.3246 5.35013 15.7166 4.95813 16.1996 4.95813C16.6826 4.95813 17.0746 5.35013 17.0746 5.83313V8.65763C17.0746 9.14063 16.6826 9.53263 16.1996 9.53263Z" fill="#61646B"/>
<path fill-rule="evenodd" clip-rule="evenodd" d="M16.1996 24.8315C15.7166 24.8315 15.3246 24.4395 15.3246 23.9565V21.5963C15.3246 21.1121 15.7166 20.7213 16.1996 20.7213C16.6826 20.7213 17.0746 21.1121 17.0746 21.5963V23.9565C17.0746 24.4395 16.6826 24.8315 16.1996 24.8315Z" fill="#61646B"/>
<path fill-rule="evenodd" clip-rule="evenodd" d="M16.1996 18.4626C15.7166 18.4626 15.3246 18.0706 15.3246 17.5876V11.9631C15.3246 11.4801 15.7166 11.0881 16.1996 11.0881C16.6826 11.0881 17.0746 11.4801 17.0746 11.9631V17.5876C17.0746 18.0706 16.6826 18.4626 16.1996 18.4626Z" fill="#61646B"/>
<mask id="mask0_1_1199" style="mask-type:luminance" maskUnits="userSpaceOnUse" x="1" y="4" width="26" height="22">
<path fill-rule="evenodd" clip-rule="evenodd" d="M1.5 4.66663H26.5833V25.0829H1.5V4.66663Z" fill="white"/>
</mask>
<g mask="url(#mask0_1_1199)">
<path fill-rule="evenodd" clip-rule="evenodd" d="M3.25 18.1459V20.4081C3.25 22.0204 4.5835 23.3329 6.22267 23.3329H21.8607C23.4998 23.3329 24.8333 22.0204 24.8333 20.4081V18.1459C23.3738 17.7621 22.2935 16.4414 22.2935 14.8758C22.2935 13.3089 23.3727 11.9894 24.8333 11.6056L24.8322 9.34109C24.8322 7.72876 23.4987 6.41626 21.8595 6.41626H6.22383C4.58467 6.41626 3.25117 7.72876 3.25117 9.34109L3.25 11.6954C4.72817 12.0583 5.78983 13.3253 5.78983 14.8758C5.78983 16.4414 4.7095 17.7621 3.25 18.1459ZM21.8607 25.0829H6.22267C3.61867 25.0829 1.5 22.9853 1.5 20.4081V17.3841C1.5 16.9011 1.892 16.5091 2.375 16.5091C3.29317 16.5091 4.03983 15.7764 4.03983 14.8758C4.03983 14.0008 3.3235 13.3404 2.375 13.3404C2.14283 13.3404 1.92 13.2483 1.75667 13.0838C1.59217 12.9204 1.5 12.6964 1.5 12.4654L1.50117 9.34109C1.50117 6.76393 3.61983 4.66626 6.22383 4.66626H21.8595C24.4635 4.66626 26.5822 6.76393 26.5822 9.34109L26.5833 12.3674C26.5833 12.5984 26.4912 12.8224 26.3267 12.9858C26.1633 13.1503 25.9405 13.2424 25.7083 13.2424C24.7902 13.2424 24.0435 13.9751 24.0435 14.8758C24.0435 15.7764 24.7902 16.5091 25.7083 16.5091C26.1913 16.5091 26.5833 16.9011 26.5833 17.3841V20.4081C26.5833 22.9853 24.4647 25.0829 21.8607 25.0829Z" fill="#61646B"/>
</g>
</svg>
