<svg width="49" height="48" viewBox="0 0 49 48" fill="none" xmlns="http://www.w3.org/2000/svg">
<path fill-rule="evenodd" clip-rule="evenodd" d="M25.405 25.1962C24.8715 25.5999 24.1352 25.6014 23.6 25.2L12.2 16.65C12.2 16.65 11.633 16.2193 11.3187 15.5907C11.3187 15.5907 11.0044 14.962 11 14.2592L11 7.5C11 7.5 11 6.25736 11.8787 5.37868C11.8787 5.37868 12.7574 4.5 14 4.5H35C35 4.5 36.2426 4.5 37.1213 5.37868C37.1213 5.37868 38 6.25736 38 7.5V14.175C38 14.175 37.9956 14.887 37.6813 15.5157C37.6813 15.5157 37.367 16.1443 36.8074 16.5694L25.405 25.1962ZM34.9929 14.1804C34.9929 14.1804 34.9962 14.1778 34.9981 14.174L34.9995 14.1723L35 14.175V7.5H14L14 14.2408C14 14.2408 14 14.2451 14.002 14.249L14.0025 14.2512C14.0025 14.2512 14.0021 14.2515 14 14.25L24.4961 22.122L34.9929 14.1804Z" fill="#1C1C1C"/>
<path fill-rule="evenodd" clip-rule="evenodd" d="M36.8074 31.4306C36.8074 31.4306 37.367 31.8557 37.6813 32.4843C37.6813 32.4843 37.9956 33.113 38 33.825V40.5C38 40.5 38 41.7426 37.1213 42.6213C37.1213 42.6213 36.2426 43.5 35 43.5H14C14 43.5 12.7574 43.5 11.8787 42.6213C11.8787 42.6213 11 41.7426 11 40.5L11 33.7408C11 33.7408 11.0044 33.038 11.3187 32.4093C11.3187 32.4093 11.633 31.7807 12.2 31.35L23.6 22.8C24.1352 22.3986 24.8715 22.4001 25.405 22.8038L36.8074 31.4306ZM34.9981 33.826C34.9981 33.826 34.9962 33.8222 34.9929 33.8196L24.4961 25.878L14 33.75L14.0025 33.7488L14.002 33.751C14.002 33.751 14 33.7549 14 33.7592L14 40.5H35V33.825L34.9995 33.8277C34.9992 33.8275 34.9984 33.8267 34.9981 33.826Z" fill="#1C1C1C"/>
</svg>
