<svg width="42" height="42" viewBox="0 0 42 42" fill="none" xmlns="http://www.w3.org/2000/svg">
<path fill-rule="evenodd" clip-rule="evenodd" d="M14.9641 35.5489C14.9641 35.5489 14.3934 35.3099 12.6182 35.2856C12.6182 35.2856 11.1005 35.2649 10.3539 35.1284C10.3539 35.1284 8.88671 34.8601 8.01333 33.9867C8.01333 33.9867 7.13467 33.108 6.86232 31.6157C6.86232 31.6157 6.72387 30.8571 6.69985 29.3168C6.69985 29.3168 6.6726 27.5685 6.44986 27.033C6.44986 27.033 6.22247 26.4862 4.98354 25.19C4.98354 25.19 3.91814 24.0754 3.4843 23.4485C3.4843 23.4485 2.625 22.2068 2.625 21C2.625 21 2.625 19.7985 3.47048 18.5748C3.47048 18.5748 3.89783 17.9562 4.95131 16.8569C4.95131 16.8569 6.20721 15.5464 6.4511 14.9641C6.4511 14.9641 6.69008 14.3934 6.71435 12.6182C6.71435 12.6182 6.7351 11.1005 6.87164 10.3539C6.87164 10.3539 7.13995 8.88671 8.01333 8.01333C8.01333 8.01333 8.89198 7.13468 10.3843 6.86233C10.3843 6.86233 11.1429 6.72387 12.6832 6.69985C12.6832 6.69985 14.4315 6.6726 14.967 6.44986C14.967 6.44986 15.5138 6.22247 16.81 4.98354C16.81 4.98354 17.9246 3.91814 18.5515 3.4843C18.5515 3.4843 19.7932 2.625 21 2.625C21 2.625 22.2015 2.625 23.4252 3.47048C23.4252 3.47048 24.0438 3.89783 25.1431 4.95131C25.1431 4.95131 26.4536 6.20721 27.0359 6.4511C27.0359 6.4511 27.6065 6.69008 29.3818 6.71435C29.3818 6.71435 30.8995 6.7351 31.6461 6.87164C31.6461 6.87164 33.1133 7.13995 33.9867 8.01333C33.9867 8.01333 34.8653 8.89198 35.1377 10.3843C35.1377 10.3843 35.2761 11.1429 35.3001 12.6832C35.3001 12.6832 35.3274 14.4315 35.5501 14.967C35.5501 14.967 35.7775 15.5138 37.0165 16.81C37.0165 16.81 38.0819 17.9246 38.5157 18.5515C38.5157 18.5515 39.375 19.7932 39.375 21C39.375 21 39.375 22.2015 38.5295 23.4252C38.5295 23.4252 38.1022 24.0438 37.0487 25.1431C37.0487 25.1431 35.7928 26.4536 35.5489 27.0359C35.5489 27.0359 35.3099 27.6066 35.2856 29.3818C35.2856 29.3818 35.2649 30.8995 35.1284 31.6461C35.1284 31.6461 34.8601 33.1133 33.9867 33.9867C33.9867 33.9867 33.108 34.8653 31.6157 35.1377C31.6157 35.1377 30.8571 35.2761 29.3168 35.3001C29.3168 35.3001 27.5685 35.3274 27.033 35.5501C27.033 35.5501 26.4862 35.7775 25.19 37.0165C25.19 37.0165 24.0754 38.0819 23.4485 38.5157C23.4485 38.5157 22.2068 39.375 21 39.375C21 39.375 19.7985 39.375 18.5748 38.5295C18.5748 38.5295 17.9562 38.1022 16.8569 37.0487C16.8569 37.0487 15.5464 35.7928 14.9641 35.5489ZM15.9781 33.1277C15.9781 33.1277 17.0104 33.56 18.6732 35.1535C18.6732 35.1535 20.3391 36.75 21 36.75C21 36.75 21.6697 36.75 23.3763 35.1189C23.3763 35.1189 25.0263 33.5418 26.0249 33.1264C26.0249 33.1264 27.0247 32.7106 29.2759 32.6755C29.2759 32.6755 31.6221 32.6389 32.1305 32.1305C32.1305 32.1305 32.6297 31.6314 32.6609 29.3459C32.6609 29.3459 32.6921 27.0619 33.1277 26.0219C33.1277 26.0219 33.56 24.9896 35.1535 23.3268C35.1535 23.3268 36.75 21.6609 36.75 21C36.75 21 36.75 20.3303 35.1189 18.6237C35.1189 18.6237 33.5418 16.9737 33.1264 15.9751C33.1264 15.9751 32.7106 14.9753 32.6755 12.7241C32.6755 12.7241 32.6389 10.3779 32.1305 9.86948C32.1305 9.86948 31.6314 9.37035 29.3459 9.33911C29.3459 9.33911 27.0619 9.30788 26.0219 8.87234C26.0219 8.87234 24.9895 8.43998 23.3268 6.84653C23.3268 6.84653 21.6609 5.25 21 5.25C21 5.25 20.3303 5.25 18.6237 6.88115C18.6237 6.88115 16.9737 8.45824 15.9751 8.87357C15.9751 8.87357 14.9753 9.28945 12.7241 9.32454C12.7241 9.32454 10.3779 9.36111 9.86948 9.86949C9.86948 9.86949 9.37035 10.3686 9.33911 12.6541C9.33911 12.6541 9.30788 14.9381 8.87234 15.9781C8.87234 15.9781 8.43999 17.0105 6.84653 18.6732C6.84653 18.6732 5.25 20.3391 5.25 21C5.25 21 5.25 21.6697 6.88115 23.3763C6.88115 23.3763 8.45824 25.0263 8.87357 26.0249C8.87357 26.0249 9.28945 27.0247 9.32454 29.2759C9.32454 29.2759 9.36111 31.6221 9.86949 32.1305C9.86949 32.1305 10.3686 32.6296 12.6541 32.6609C12.6541 32.6609 14.9381 32.6921 15.9781 33.1277Z" fill="#1C1C1C"/>
<path d="M14.688 20.7074C14.4438 20.474 14.119 20.3438 13.7812 20.3438C13.781 20.3438 13.7515 20.3441 13.7515 20.3441C13.4035 20.352 13.0729 20.4978 12.8324 20.7495C12.599 20.9937 12.4688 21.3185 12.4688 21.6562L12.4691 21.686C12.477 22.034 12.6228 22.3646 12.8745 22.6051L17.6815 27.1989C18.1885 27.6834 18.9868 27.6837 19.4943 27.1997L29.1244 18.0125C29.3763 17.7722 29.5227 17.4414 29.5309 17.0934C29.5314 17.0724 29.5314 17.0513 29.5309 17.0303C29.5229 16.7041 29.3936 16.3926 29.1684 16.1565C28.9207 15.8969 28.5776 15.75 28.2188 15.75L28.1817 15.7505C27.8572 15.7597 27.5476 15.8888 27.3128 16.1128L18.5891 24.4353L14.688 20.7074Z" fill="#1C1C1C"/>
</svg>
