<svg width="32" height="32" viewBox="0 0 32 32" fill="none" xmlns="http://www.w3.org/2000/svg">
<path fill-rule="evenodd" clip-rule="evenodd" d="M3 24V7C3 6.44772 3.44772 6 4 6H28C28.5523 6 29 6.44772 29 7V24C29 24 29 24.8284 28.4142 25.4142C28.4142 25.4142 27.8284 26 27 26H5C5 26 4.17157 26 3.58579 25.4142C3.58579 25.4142 3 24.8284 3 24ZM5 24H27V8H5V24Z" fill="#1C1C1C"/>
<path d="M4.67572 6.26285C4.49129 6.09379 4.25019 6 4 6C3.98552 6 3.97103 6.00031 3.95656 6.00094C3.6916 6.01246 3.44206 6.12877 3.26285 6.32428C3.09379 6.50871 3 6.74981 3 7C3 7.01448 3.00031 7.02897 3.00094 7.04344C3.01246 7.3084 3.12877 7.55794 3.32428 7.73715L15.3243 18.7372C15.7066 19.0876 16.2934 19.0876 16.6757 18.7372L28.6751 7.73777C28.8817 7.54836 29 7.28031 29 7L29 6.99169C28.9979 6.74437 28.9043 6.50659 28.7372 6.32428C28.5579 6.12877 28.3084 6.01246 28.0434 6.00094C28.029 6.00031 28.0145 6 28 6L27.9954 6.00001C27.7468 6.00115 27.5075 6.09486 27.3243 6.26285L16 16.6434L4.67572 6.26285Z" fill="#1C1C1C"/>
</svg>
