<svg width="20" height="20" viewBox="0 0 20 20" fill="none" xmlns="http://www.w3.org/2000/svg">
<path fill-rule="evenodd" clip-rule="evenodd" d="M8.40006 15.494H3.14923C2.80423 15.494 2.52423 15.214 2.52423 14.869C2.52423 14.524 2.80423 14.244 3.14923 14.244H8.40006C8.74506 14.244 9.02506 14.524 9.02506 14.869C9.02506 15.214 8.74506 15.494 8.40006 15.494Z" fill="black"/>
<path fill-rule="evenodd" clip-rule="evenodd" d="M15.9924 7.41699H10.7424C10.3974 7.41699 10.1174 7.13699 10.1174 6.79199C10.1174 6.44699 10.3974 6.16699 10.7424 6.16699H15.9924C16.3374 6.16699 16.6174 6.44699 16.6174 6.79199C16.6174 7.13699 16.3374 7.41699 15.9924 7.41699Z" fill="black"/>
<mask id="mask0_36_269" style="mask-type:luminance" maskUnits="userSpaceOnUse" x="2" y="4" width="6" height="6">
<path fill-rule="evenodd" clip-rule="evenodd" d="M2.5 4.16699H7.68817V9.32666H2.5V4.16699Z" fill="white"/>
</mask>
<g mask="url(#mask0_36_269)">
<path fill-rule="evenodd" clip-rule="evenodd" d="M5.09398 5.41669C4.35315 5.41669 3.74982 6.01335 3.74982 6.74752C3.74982 7.48085 4.35315 8.07669 5.09398 8.07669C5.83565 8.07669 6.43815 7.48085 6.43815 6.74752C6.43815 6.01335 5.83565 5.41669 5.09398 5.41669ZM5.09398 9.32669C3.66398 9.32669 2.49982 8.17002 2.49982 6.74752C2.49982 5.32502 3.66398 4.16669 5.09398 4.16669C6.52482 4.16669 7.68815 5.32502 7.68815 6.74752C7.68815 8.17002 6.52482 9.32669 5.09398 9.32669Z" fill="black"/>
</g>
<path fill-rule="evenodd" clip-rule="evenodd" d="M14.4898 13.5067C13.7481 13.5067 13.1448 14.1033 13.1448 14.8367C13.1448 15.5708 13.7481 16.1667 14.4898 16.1667C15.2306 16.1667 15.8331 15.5708 15.8331 14.8367C15.8331 14.1033 15.2306 13.5067 14.4898 13.5067ZM14.4898 17.4167C13.0589 17.4167 11.8948 16.2592 11.8948 14.8367C11.8948 13.4142 13.0589 12.2567 14.4898 12.2567C15.9198 12.2567 17.0831 13.4142 17.0831 14.8367C17.0831 16.2592 15.9198 17.4167 14.4898 17.4167Z" fill="black"/>
</svg>
