<svg width="29" height="28" viewBox="0 0 29 28" fill="none" xmlns="http://www.w3.org/2000/svg">
<path d="M11.1572 24.2356V20.6683C11.1572 19.7576 11.9008 19.0194 12.8181 19.0194H16.1713C16.6118 19.0194 17.0343 19.1931 17.3458 19.5023C17.6573 19.8116 17.8323 20.231 17.8323 20.6683V24.2356C17.8295 24.6142 17.979 24.9782 18.2477 25.2469C18.5164 25.5156 18.882 25.6667 19.2634 25.6667H21.5511C22.6195 25.6694 23.6452 25.25 24.4017 24.501C25.1581 23.7519 25.5833 22.7348 25.5833 21.6742V11.5114C25.5833 10.6546 25.2007 9.84186 24.5387 9.29215L16.7563 3.12189C15.4026 2.04003 13.4629 2.07496 12.1496 3.20485L4.54481 9.29215C3.85149 9.82565 3.4371 10.6408 3.41663 11.5114V21.6638C3.41663 23.8745 5.2219 25.6667 7.44883 25.6667H9.6843C10.4764 25.6667 11.1201 25.0323 11.1259 24.246L11.1572 24.2356Z" fill="#19191B"/>
</svg>
