<svg width="49" height="48" viewBox="0 0 49 48" fill="none" xmlns="http://www.w3.org/2000/svg">
<path fill-rule="evenodd" clip-rule="evenodd" d="M24.5 4.5C24.5 4.5 28.4663 4.5 32.0907 6.03302C32.0907 6.03302 35.5904 7.51327 38.2886 10.2114C38.2886 10.2114 40.9867 12.9096 42.467 16.4093C42.467 16.4093 44 20.0337 44 24C44 24 44 27.9663 42.467 31.5907C42.467 31.5907 40.9867 35.0904 38.2886 37.7886C38.2886 37.7886 35.5904 40.4867 32.0907 41.967C32.0907 41.967 28.4663 43.5 24.5 43.5C24.5 43.5 20.5337 43.5 16.9093 41.967C16.9093 41.967 13.4096 40.4867 10.7114 37.7886C10.7114 37.7886 8.01326 35.0904 6.53302 31.5907C6.53302 31.5907 5 27.9663 5 24C5 24 5 20.0337 6.53302 16.4093C6.53302 16.4093 8.01327 12.9096 10.7114 10.2114C10.7114 10.2114 13.4096 7.51327 16.9093 6.03302C16.9093 6.03302 20.5337 4.5 24.5 4.5ZM24.5 7.5C24.5 7.5 21.1421 7.5 18.0779 8.79603C18.0779 8.79603 15.1171 10.0483 12.8327 12.3327C12.8327 12.3327 10.5483 14.6171 9.29604 17.5779C9.29604 17.5779 8 20.6421 8 24C8 24 8 27.3579 9.29604 30.4221C9.29604 30.4221 10.5483 33.3829 12.8327 35.6673C12.8327 35.6673 15.1171 37.9517 18.0779 39.204C18.0779 39.204 21.1421 40.5 24.5 40.5C24.5 40.5 27.8579 40.5 30.9221 39.204C30.9221 39.204 33.8829 37.9517 36.1673 35.6673C36.1673 35.6673 38.4517 33.3829 39.704 30.4221C39.704 30.4221 41 27.3579 41 24C41 24 41 20.6421 39.704 17.5779C39.704 17.5779 38.4517 14.6171 36.1673 12.3327C36.1673 12.3327 33.8829 10.0483 30.9221 8.79604C30.9221 8.79604 27.8579 7.5 24.5 7.5Z" fill="#19191B"/>
<path d="M24.5 25.5H35C35.8284 25.5 36.5 24.8284 36.5 24C36.5 23.1716 35.8284 22.5 35 22.5H24.5C23.6716 22.5 23 23.1716 23 24C23 24.8284 23.6716 25.5 24.5 25.5Z" fill="#19191B"/>
<path d="M25.5607 22.9393C25.2794 22.658 24.8978 22.5 24.5 22.5C24.1022 22.5 23.7206 22.658 23.4393 22.9393C23.158 23.2206 23 23.6022 23 24C23 24.3978 23.158 24.7794 23.4393 25.0607L30.8636 32.4849C31.1449 32.7662 31.5272 32.925 31.925 32.925C32.3228 32.925 32.7044 32.767 32.9857 32.4857C33.267 32.2044 33.425 31.8228 33.425 31.425C33.425 31.0272 33.267 30.6456 32.9857 30.3643L25.5607 22.9393Z" fill="#19191B"/>
</svg>
