<svg width="49" height="48" viewBox="0 0 49 48" fill="none" xmlns="http://www.w3.org/2000/svg">
<path fill-rule="evenodd" clip-rule="evenodd" d="M32 6V4.5C32 3.67157 32.6716 3 33.5 3C34.3284 3 35 3.67157 35 4.5V6H39.5C39.5 6 40.7426 6 41.6213 6.87868C41.6213 6.87868 42.5 7.75736 42.5 9V39C42.5 39 42.5 40.2426 41.6213 41.1213C41.6213 41.1213 40.7426 42 39.5 42H9.5C9.5 42 8.25736 42 7.37868 41.1213C7.37868 41.1213 6.5 40.2426 6.5 39V9C6.5 9 6.5 7.75736 7.37868 6.87868C7.37868 6.87868 8.25736 6 9.5 6H14V4.5C14 3.67157 14.6716 3 15.5 3C16.3284 3 17 3.67157 17 4.5V6H32ZM9.5 18V39H39.5V18H9.5ZM39.5 15H9.5V9H14V10.5C14 11.3284 14.6716 12 15.5 12C16.3284 12 17 11.3284 17 10.5V9H32V10.5C32 11.3284 32.6716 12 33.5 12C34.3284 12 35 11.3284 35 10.5V9H39.5V15Z" fill="#19191B"/>
</svg>
