<svg width="32" height="32" viewBox="0 0 32 32" fill="none" xmlns="http://www.w3.org/2000/svg">
<path fill-rule="evenodd" clip-rule="evenodd" d="M16 6C16 6 18.0338 6 19.8928 6.78626C19.8928 6.78626 21.6875 7.54537 23.0711 8.92893C23.0711 8.92893 24.4546 10.3125 25.2137 12.1072C25.2137 12.1072 26 13.9662 26 16C26 16 26 18.0338 25.2137 19.8928C25.2137 19.8928 24.4546 21.6875 23.0711 23.0711C23.0711 23.0711 21.6875 24.4546 19.8928 25.2137C19.8928 25.2137 18.0338 26 16 26C16 26 13.9662 26 12.1072 25.2137C12.1072 25.2137 10.3125 24.4546 8.92893 23.0711C8.92893 23.0711 7.54538 21.6875 6.78626 19.8928C6.78626 19.8928 6 18.0338 6 16C6 16 6 13.9662 6.78626 12.1072C6.78626 12.1072 7.54538 10.3125 8.92893 8.92893C8.92893 8.92893 10.3125 7.54538 12.1072 6.78626C12.1072 6.78626 13.9662 6 16 6ZM16 8C16 8 12.6863 8 10.3431 10.3431C10.3431 10.3431 8 12.6863 8 16C8 16 8 19.3137 10.3431 21.6569C10.3431 21.6569 12.6863 24 16 24C16 24 19.3137 24 21.6569 21.6569C21.6569 21.6569 24 19.3137 24 16C24 16 24 12.6863 21.6569 10.3431C21.6569 10.3431 19.3137 8 16 8Z" fill="#1C1C1C"/>
<path d="M16 17H21C21.5523 17 22 16.5523 22 16C22 15.4477 21.5523 15 21 15H17V11C17 10.4477 16.5523 10 16 10C15.4477 10 15 10.4477 15 11V16C15 16.5523 15.4477 17 16 17Z" fill="#1C1C1C"/>
<path d="M19.166 4.00343L20.0159 8.69025C20.0632 8.95121 20.2124 9.18337 20.4304 9.33443C20.5977 9.45038 20.7964 9.51251 21 9.51251L21.0095 9.51246C21.0662 9.51192 21.1227 9.50657 21.1784 9.49646C21.6541 9.4102 22 8.99597 22 8.51251L22 8.50432C21.9995 8.44722 21.9941 8.39027 21.984 8.33408L21.134 3.64658C21.007 2.93243 20.4477 2.46515 20.4477 2.46515C19.8884 1.99788 19.1596 2.00001 19.1596 2.00001L12.8375 2.00001C12.1116 1.99788 11.5523 2.46515 11.5523 2.46515C10.993 2.93243 10.8654 3.65001 10.8654 3.65001L10.016 8.33408C10.0054 8.39296 10 8.45267 10 8.51251L10 8.51611C10.0017 8.99821 10.3472 9.41044 10.8216 9.49646C10.8805 9.50714 10.9402 9.51251 11 9.51251L11.0151 9.51239C11.2135 9.50941 11.4065 9.44746 11.5696 9.33443C11.7876 9.18337 11.9366 8.95189 11.984 8.69093L12.8346 4L12.8375 4.00001L19.1654 4L19.166 4.00343Z" fill="#1C1C1C"/>
<path d="M21.134 28.3535L21.9838 23.6667C21.9945 23.6078 22 23.5474 22 23.4875L21.9999 23.4725C21.9969 23.2741 21.935 23.081 21.8219 22.9179C21.6709 22.7 21.4394 22.5509 21.1784 22.5036C21.1195 22.4929 21.0598 22.4875 21 22.4875L20.9964 22.4876C20.5143 22.4893 20.1021 22.8348 20.016 23.3091L19.166 27.9966L19.1654 28.0001L12.8375 28L12.8346 28L11.984 23.3091C11.8977 22.8334 11.4835 22.4875 11 22.4875L10.9918 22.4876C10.9347 22.488 10.8778 22.4934 10.8216 22.5036C10.3459 22.5899 10 23.0041 10 23.4875L10 23.4957C10.0005 23.5528 10.0059 23.6098 10.016 23.666L10.8654 28.35C10.993 29.0676 11.5523 29.5349 11.5523 29.5349C12.1116 30.0022 12.8375 30 12.8375 30L19.1596 30C19.8884 30.0022 20.4477 29.5349 20.4477 29.5349C21.007 29.0676 21.134 28.3535 21.134 28.3535Z" fill="#1C1C1C"/>
</svg>
